<svg width="148" height="64" viewBox="0 0 148 64" fill="none" xmlns="http://www.w3.org/2000/svg">
<path d="M116.518 18.2363C115.444 18.2363 114.415 18.0442 113.43 17.6599C112.445 17.2756 111.556 16.7079 110.765 15.9568C109.991 15.1882 109.375 14.2362 108.918 13.1008C108.46 11.9654 108.231 10.6378 108.231 9.11815C108.231 7.63339 108.46 6.32331 108.918 5.18791C109.375 4.05251 109.991 3.10052 110.765 2.33194C111.556 1.56336 112.445 0.986927 113.43 0.602637C114.433 0.20088 115.462 0 116.518 0C117.573 0 118.594 0.192146 119.579 0.576436C120.581 0.960725 121.47 1.53716 122.244 2.30574C123.018 3.05685 123.634 4.00011 124.091 5.13551C124.549 6.27091 124.777 7.59846 124.777 9.11815C124.777 10.6029 124.549 11.913 124.091 13.0484C123.634 14.1838 123.018 15.1358 122.244 15.9044C121.47 16.6729 120.59 17.2581 119.605 17.6599C118.62 18.0442 117.591 18.2363 116.518 18.2363ZM116.518 17.4503C117.52 17.4503 118.33 17.197 118.945 16.6904C119.561 16.1664 120.01 15.293 120.291 14.0702C120.573 12.8475 120.713 11.1968 120.713 9.11815C120.713 7.03949 120.573 5.39752 120.291 4.19225C120.01 2.96951 119.561 2.10486 118.945 1.5983C118.33 1.07426 117.52 0.812249 116.518 0.812249C115.532 0.812249 114.723 1.07426 114.09 1.5983C113.474 2.10486 113.025 2.96951 112.744 4.19225C112.462 5.39752 112.322 7.03949 112.322 9.11815C112.322 11.1968 112.462 12.8475 112.744 14.0702C113.025 15.293 113.474 16.1664 114.09 16.6904C114.723 17.197 115.532 17.4503 116.518 17.4503Z" fill="black"/>
<path d="M21.5176 46.534C20.4444 46.534 19.4153 46.3419 18.4301 45.9576C17.4449 45.5733 16.5565 45.0056 15.7648 44.2545C14.9907 43.4859 14.375 42.5339 13.9176 41.3985C13.4602 40.2631 13.2314 38.9356 13.2314 37.4159C13.2314 35.9311 13.4602 34.621 13.9176 33.4856C14.375 32.3502 14.9907 31.3983 15.7648 30.6297C16.5565 29.8611 17.4449 29.2847 18.4301 28.9004C19.4328 28.4986 20.462 28.2977 21.5176 28.2977C22.5731 28.2977 23.5935 28.4899 24.5787 28.8742C25.5815 29.2585 26.4699 29.8349 27.244 30.6035C28.0181 31.3546 28.6338 32.2978 29.0912 33.4332C29.5486 34.5686 29.7773 35.8962 29.7773 37.4159C29.7773 38.9006 29.5486 40.2107 29.0912 41.3461C28.6338 42.4815 28.0181 43.4335 27.244 44.2021C26.4699 44.9707 25.5903 45.5558 24.6051 45.9576C23.6199 46.3419 22.5907 46.534 21.5176 46.534ZM21.5176 45.748C22.5204 45.748 23.3296 45.4947 23.9454 44.9881C24.5611 44.4641 25.0097 43.5907 25.2912 42.368C25.5727 41.1452 25.7134 39.4945 25.7134 37.4159C25.7134 35.3372 25.5727 33.6953 25.2912 32.49C25.0097 31.2672 24.5611 30.4026 23.9454 29.896C23.3296 29.372 22.5204 29.11 21.5176 29.11C20.5324 29.11 19.7231 29.372 19.0898 29.896C18.474 30.4026 18.0254 31.2672 17.744 32.49C17.4625 33.6953 17.3217 35.3372 17.3217 37.4159C17.3217 39.4945 17.4625 41.1452 17.744 42.368C18.0254 43.5907 18.474 44.4641 19.0898 44.9881C19.7231 45.4947 20.5324 45.748 21.5176 45.748Z" fill="black"/>
<path d="M139.74 46.534C138.667 46.534 137.638 46.3419 136.653 45.9576C135.668 45.5733 134.779 45.0056 133.987 44.2545C133.213 43.4859 132.598 42.5339 132.14 41.3985C131.683 40.2631 131.454 38.9356 131.454 37.4159C131.454 35.9311 131.683 34.621 132.14 33.4856C132.598 32.3502 133.213 31.3983 133.987 30.6297C134.779 29.8611 135.668 29.2847 136.653 28.9004C137.656 28.4986 138.685 28.2977 139.74 28.2977C140.796 28.2977 141.816 28.4899 142.801 28.8742C143.804 29.2585 144.693 29.8349 145.467 30.6035C146.241 31.3546 146.856 32.2978 147.314 33.4332C147.771 34.5686 148 35.8962 148 37.4159C148 38.9006 147.771 40.2107 147.314 41.3461C146.856 42.4815 146.241 43.4335 145.467 44.2021C144.693 44.9707 143.813 45.5558 142.828 45.9576C141.843 46.3419 140.813 46.534 139.74 46.534ZM139.74 45.748C140.743 45.748 141.552 45.4947 142.168 44.9881C142.784 44.4641 143.232 43.5907 143.514 42.368C143.795 41.1452 143.936 39.4945 143.936 37.4159C143.936 35.3372 143.795 33.6953 143.514 32.49C143.232 31.2672 142.784 30.4026 142.168 29.896C141.552 29.372 140.743 29.11 139.74 29.11C138.755 29.11 137.946 29.372 137.312 29.896C136.697 30.4026 136.248 31.2672 135.967 32.49C135.685 33.6953 135.544 35.3372 135.544 37.4159C135.544 39.4945 135.685 41.1452 135.967 42.368C136.248 43.5907 136.697 44.4641 137.312 44.9881C137.946 45.4947 138.755 45.748 139.74 45.748Z" fill="black"/>
<path d="M124.76 46.534C123.054 46.534 121.515 46.1847 120.142 45.486C118.77 44.7873 117.679 43.7567 116.87 42.3942C116.078 41.0317 115.683 39.3723 115.683 37.4159C115.683 35.9486 115.92 34.6472 116.395 33.5118C116.888 32.3764 117.556 31.4245 118.401 30.6559C119.263 29.8698 120.248 29.2847 121.356 28.9004C122.465 28.4986 123.643 28.2977 124.892 28.2977C125.86 28.2977 126.766 28.4113 127.61 28.6384C128.455 28.848 129.264 29.1624 130.038 29.5816L130.144 33.014H129.431L128.323 30.9441C128.147 30.5947 127.953 30.2803 127.742 30.0008C127.549 29.7213 127.294 29.5205 126.977 29.3982C126.537 29.1886 126.018 29.0838 125.42 29.0838C124.382 29.0838 123.432 29.3458 122.57 29.8698C121.726 30.3939 121.048 31.2672 120.538 32.49C120.028 33.6953 119.773 35.346 119.773 37.4421C119.773 39.5207 120.01 41.1714 120.485 42.3942C120.978 43.6169 121.638 44.4903 122.465 45.0143C123.291 45.5209 124.224 45.7742 125.262 45.7742C125.737 45.7742 126.124 45.7392 126.423 45.6694C126.722 45.5995 127.021 45.5034 127.32 45.3812C127.672 45.2414 127.945 45.0405 128.138 44.7785C128.332 44.499 128.499 44.1846 128.64 43.8353L129.642 41.4509H130.355L130.249 45.2239C129.493 45.6432 128.657 45.9663 127.742 46.1934C126.828 46.4205 125.834 46.534 124.76 46.534Z" fill="black"/>
<path d="M108.39 46.0885V45.5383L108.918 45.3811C109.27 45.2588 109.498 45.1016 109.604 44.9095C109.727 44.6999 109.789 44.4116 109.789 44.0448V30.813C109.789 30.4462 109.727 30.1667 109.604 29.9746C109.498 29.7649 109.27 29.599 108.918 29.4767L108.39 29.3195V28.7693H114.987V29.3195L114.46 29.4767C114.125 29.599 113.897 29.7649 113.773 29.9746C113.65 30.1667 113.589 30.4462 113.589 30.813V44.0448C113.589 44.4116 113.65 44.6999 113.773 44.9095C113.897 45.1016 114.125 45.2588 114.46 45.3811L114.987 45.5383V46.0885H108.39Z" fill="black"/>
<path d="M91.8975 46.0885V45.5383L92.4516 45.3811C92.8035 45.2763 93.0234 45.1278 93.1114 44.9357C93.2169 44.7261 93.2697 44.4378 93.2697 44.071C93.2873 43.0579 93.2961 42.0448 93.2961 41.0316C93.2961 40.0185 93.2961 38.9966 93.2961 37.966V36.8918C93.2961 35.8786 93.2961 34.8655 93.2961 33.8524C93.2961 32.8393 93.2873 31.8261 93.2697 30.813C93.2697 30.4462 93.2257 30.1667 93.1377 29.9746C93.0498 29.7649 92.8299 29.6077 92.478 29.5029L91.8975 29.3195V28.7693H99.2864C101.345 28.7693 102.928 29.1623 104.036 29.9484C105.162 30.7169 105.725 31.7999 105.725 33.1974C105.725 33.9659 105.417 34.7432 104.802 35.5293C104.204 36.3153 103.28 36.918 102.031 37.3372L105.62 44.2806C105.919 44.8571 106.385 45.2501 107.018 45.4597L107.52 45.5645V46.0885H102.849L98.9169 37.9136H97.0169C97.0169 39.1538 97.0169 40.2718 97.0169 41.2674C97.0169 42.2631 97.0257 43.1976 97.0433 44.071C97.0433 44.4204 97.0961 44.6999 97.2016 44.9095C97.3248 45.1191 97.5535 45.2676 97.8878 45.3549L98.5211 45.5383V46.0885H91.8975ZM97.0169 37.1538H98.4419C99.691 37.1538 100.606 36.8394 101.186 36.2105C101.767 35.5817 102.057 34.621 102.057 33.3284C102.057 32.0358 101.776 31.0838 101.213 30.4724C100.667 29.8436 99.779 29.5291 98.5475 29.5291H97.0433C97.0433 30.2104 97.0345 30.9091 97.0169 31.6253C97.0169 32.324 97.0169 33.1187 97.0169 34.0096C97.0169 34.883 97.0169 35.9311 97.0169 37.1538Z" fill="black"/>
<path d="M60.8442 46.0885V45.5383L61.372 45.3811C61.7415 45.2588 61.979 45.1016 62.0845 44.9095C62.1901 44.6999 62.2429 44.4116 62.2429 44.0448V30.7868C62.2429 30.4375 62.1901 30.1667 62.0845 29.9746C61.979 29.7649 61.7503 29.599 61.3984 29.4767L60.8442 29.3195V28.7693H67.3887V29.3195L66.8873 29.4767C66.5531 29.599 66.3243 29.7649 66.2012 29.9746C66.0956 30.1842 66.0429 30.4724 66.0429 30.8392V45.3025H69.922C70.5202 45.3025 70.9688 45.154 71.2679 44.8571C71.567 44.5601 71.8484 44.1321 72.1123 43.5732L73.0887 41.3985H73.8276L73.5637 46.0885H60.8442Z" fill="black"/>
<path d="M53.9689 46.534C52.2624 46.534 50.7231 46.1847 49.3508 45.486C47.9786 44.7873 46.8879 43.7567 46.0786 42.3942C45.2869 41.0317 44.8911 39.3723 44.8911 37.4159C44.8911 35.9486 45.1286 34.6472 45.6036 33.5118C46.0962 32.3764 46.7647 31.4245 47.6092 30.6559C48.4712 29.8698 49.4564 29.2847 50.5647 28.9004C51.6731 28.4986 52.8518 28.2977 54.1009 28.2977C55.0685 28.2977 55.9745 28.4113 56.8189 28.6384C57.6634 28.848 58.4726 29.1624 59.2467 29.5816L59.3523 33.014H58.6398L57.5314 30.9441C57.3555 30.5947 57.162 30.2803 56.9509 30.0008C56.7573 29.7213 56.5023 29.5205 56.1856 29.3982C55.7458 29.1886 55.2268 29.0838 54.6286 29.0838C53.5907 29.0838 52.6407 29.3458 51.7786 29.8698C50.9342 30.3939 50.2569 31.2672 49.7467 32.49C49.2365 33.6953 48.9814 35.346 48.9814 37.4421C48.9814 39.5207 49.2189 41.1714 49.6939 42.3942C50.1865 43.6169 50.8462 44.4903 51.6731 45.0143C52.4999 45.5209 53.4323 45.7742 54.4703 45.7742C54.9453 45.7742 55.3323 45.7392 55.6314 45.6694C55.9305 45.5995 56.2296 45.5034 56.5286 45.3812C56.8805 45.2414 57.1532 45.0405 57.3467 44.7785C57.5402 44.499 57.7073 44.1846 57.8481 43.8353L58.8509 41.4509H59.5634L59.4578 45.2239C58.7013 45.6432 57.8657 45.9663 56.9509 46.1934C56.0361 46.4205 55.0421 46.534 53.9689 46.534Z" fill="black"/>
<path d="M31.0791 46.0885V45.5383L31.6069 45.3811C31.9763 45.2588 32.2138 45.1016 32.3194 44.9095C32.4249 44.6999 32.4777 44.4116 32.4777 44.0448V30.7868C32.4777 30.4375 32.4249 30.1667 32.3194 29.9746C32.2138 29.7649 31.9851 29.599 31.6333 29.4767L31.0791 29.3195V28.7693H37.6236V29.3195L37.1222 29.4767C36.7879 29.599 36.5592 29.7649 36.4361 29.9746C36.3305 30.1842 36.2777 30.4724 36.2777 30.8392V45.3025H40.1569C40.7551 45.3025 41.2037 45.154 41.5027 44.8571C41.8018 44.5601 42.0833 44.1321 42.3472 43.5732L43.3236 41.3985H44.0625L43.7986 46.0885H31.0791Z" fill="black"/>
<path d="M0 46.0885V45.5383L0.50139 45.4073C0.853243 45.3025 1.08195 45.1453 1.1875 44.9357C1.29306 44.7261 1.35463 44.4378 1.37223 44.071C1.38982 43.0754 1.39862 42.071 1.39862 41.0578C1.39862 40.0272 1.39862 38.9966 1.39862 37.966V36.8918C1.39862 35.8786 1.39862 34.8655 1.39862 33.8524C1.39862 32.8393 1.38982 31.8261 1.37223 30.813C1.35463 30.4462 1.30186 30.1667 1.21389 29.9746C1.12593 29.7649 0.914817 29.6077 0.580557 29.5029L0 29.3195V28.7693H12.6931L12.8778 33.1974H12.1653L10.7931 30.6034C10.6172 30.2715 10.4236 30.0182 10.2125 29.8436C10.0014 29.6514 9.69355 29.5553 9.28892 29.5553H5.22502C5.20742 30.7257 5.18983 31.9309 5.17224 33.1712C5.17224 34.3939 5.17224 35.6166 5.17224 36.8394H7.70558C8.11021 36.8394 8.40928 36.752 8.6028 36.5774C8.79632 36.3852 8.98104 36.1232 9.15697 35.7913L9.68475 34.8219H10.2653V39.6167H9.68475L9.15697 38.6735C8.96345 38.3241 8.76993 38.0621 8.57641 37.8874C8.40049 37.6953 8.11021 37.5992 7.70558 37.5992H5.17224C5.17224 38.7521 5.17224 39.8613 5.17224 40.9268C5.17224 41.9749 5.18103 43.0055 5.19863 44.0186C5.19863 44.7348 5.52409 45.1802 6.17502 45.3549L6.96669 45.5383V46.0885H0Z" fill="black"/>
<path d="M90.1191 17.7908V17.2406L90.6205 17.0834C90.9724 16.9611 91.2099 16.8039 91.333 16.6117C91.4562 16.4021 91.5178 16.1226 91.5178 15.7733V2.51528C91.5178 2.16593 91.4562 1.88644 91.333 1.67683C91.2275 1.46722 90.9988 1.30127 90.6469 1.179L90.1191 1.02179V0.471558H96.6372V1.02179L96.1886 1.1528C95.8543 1.27507 95.6256 1.44102 95.5025 1.65063C95.3793 1.84277 95.3178 2.11352 95.3178 2.46288V8.48924H101.889V2.46288C101.889 2.11352 101.827 1.84277 101.704 1.65063C101.581 1.44102 101.343 1.27507 100.991 1.1528L100.569 1.02179V0.471558H107.087V1.02179L106.586 1.179C106.252 1.30127 106.014 1.46722 105.873 1.67683C105.75 1.86898 105.689 2.13972 105.689 2.48908V15.7733C105.689 16.1226 105.75 16.4021 105.873 16.6117C106.014 16.8039 106.252 16.9611 106.586 17.0834L107.087 17.2406V17.7908H100.569V17.2406L100.991 17.1096C101.343 16.9873 101.581 16.8301 101.704 16.6379C101.827 16.4283 101.889 16.1488 101.889 15.7995V9.27529H95.3178V15.7995C95.3178 16.1488 95.3793 16.4283 95.5025 16.6379C95.6432 16.8301 95.8807 16.9873 96.215 17.1096L96.6372 17.2406V17.7908H90.1191Z" fill="black"/>
<path d="M83.2443 18.2363C81.5378 18.2363 79.9985 17.8869 78.6262 17.1882C77.254 16.4895 76.1633 15.4589 75.354 14.0964C74.5623 12.734 74.1665 11.0745 74.1665 9.11815C74.1665 7.65086 74.404 6.34952 74.879 5.21411C75.3716 4.07871 76.0401 3.12672 76.8846 2.35814C77.7466 1.57209 78.7318 0.986926 79.8401 0.602636C80.9485 0.200879 82.1272 0 83.3762 0C84.3438 0 85.2499 0.11354 86.0943 0.340621C86.9388 0.550233 87.748 0.864651 88.5221 1.28388L88.6277 4.71628H87.9152L86.8068 2.64636C86.6309 2.297 86.4374 1.98259 86.2263 1.7031C86.0327 1.42362 85.7776 1.22274 85.461 1.10047C85.0212 0.890853 84.5022 0.786046 83.904 0.786046C82.8661 0.786046 81.9161 1.04806 81.054 1.57209C80.2096 2.09613 79.5323 2.96951 79.0221 4.19225C78.5119 5.39752 78.2568 7.04822 78.2568 9.14435C78.2568 11.223 78.4943 12.8737 78.9693 14.0964C79.4619 15.3192 80.1216 16.1926 80.9485 16.7166C81.7753 17.2232 82.7077 17.4765 83.7457 17.4765C84.2207 17.4765 84.6077 17.4415 84.9068 17.3716C85.2059 17.3018 85.505 17.2057 85.804 17.0834C86.1559 16.9437 86.4286 16.7428 86.6221 16.4808C86.8156 16.2013 86.9827 15.8869 87.1235 15.5375L88.1263 13.1532H88.8388L88.7332 16.9262C87.9767 17.3454 87.1411 17.6686 86.2263 17.8957C85.3114 18.1228 84.3175 18.2363 83.2443 18.2363Z" fill="black"/>
<path d="M57.7335 17.7908V17.2406L58.4987 17.031C58.833 16.9436 59.0617 16.7777 59.1849 16.5331C59.3256 16.2886 59.396 15.9916 59.396 15.6423V2.96071C59.2376 2.62882 59.0969 2.38427 58.9737 2.22706C58.8682 2.05239 58.7538 1.90391 58.6307 1.78164C58.5075 1.65936 58.3404 1.51962 58.1293 1.36241L57.6543 1.02179V0.471558H62.1668L70.9279 12.3671V2.64629C70.9279 2.29693 70.8664 1.99125 70.7432 1.72923C70.6377 1.46722 70.409 1.29254 70.0571 1.2052L69.2654 1.02179V0.471558H73.1974V1.02179L72.5377 1.2052C72.2034 1.31001 71.9923 1.49342 71.9043 1.75543C71.834 1.99998 71.7988 2.29693 71.7988 2.64629V17.8956H70.321L60.2668 4.16598V15.6161C60.2668 15.9829 60.3196 16.2886 60.4251 16.5331C60.5307 16.7777 60.7506 16.9436 61.0849 17.031L61.7974 17.2406V17.7908H57.7335Z" fill="black"/>
<path d="M39.9858 17.7909V17.2407L40.6983 17.0311C41.0678 16.9263 41.3493 16.7691 41.5428 16.5594C41.7539 16.3498 41.921 16.0616 42.0442 15.6948L47.3747 0.393066H49.565L54.8692 15.7996C55.01 16.1839 55.1683 16.4808 55.3442 16.6905C55.5201 16.8826 55.8016 17.0398 56.1887 17.1621L56.5845 17.2669V17.7909H49.8817V17.2669L50.3303 17.1359C50.7174 17.0136 50.9461 16.8215 51.0164 16.5594C51.1044 16.2974 51.0868 15.9743 50.9636 15.59L49.8553 12.21H44.0234L42.8886 15.5376C42.7655 15.9219 42.7303 16.2363 42.7831 16.4808C42.8358 16.7254 43.0558 16.9175 43.4428 17.0573L44.0234 17.2407V17.7909H39.9858ZM44.2872 11.4501H49.6178L47.0317 3.56346L44.2872 11.4501Z" fill="black"/>
<path d="M23.6572 17.7908V17.2406L24.2114 17.0834C24.5632 16.9786 24.7832 16.8301 24.8711 16.6379C24.9767 16.4283 25.0295 16.1401 25.0295 15.7733C25.047 14.7602 25.0558 13.747 25.0558 12.7339C25.0558 11.7208 25.0558 10.6989 25.0558 9.66831V8.59405C25.0558 7.58092 25.0558 6.56779 25.0558 5.55467C25.0558 4.54154 25.047 3.52841 25.0295 2.51528C25.0295 2.14846 24.9855 1.86898 24.8975 1.67683C24.8095 1.46722 24.5896 1.31001 24.2378 1.2052L23.6572 1.02179V0.471558H31.0461C33.1045 0.471558 34.6878 0.864581 35.7961 1.65063C36.9221 2.41921 37.485 3.50221 37.485 4.89963C37.485 5.66821 37.1772 6.44552 36.5614 7.23157C35.9633 8.01761 35.0397 8.62025 33.7906 9.03948L37.3795 15.9829C37.6786 16.5593 38.1448 16.9524 38.7781 17.162L39.2795 17.2668V17.7908H34.6086L30.6767 9.61591H28.7767C28.7767 10.8561 28.7767 11.9741 28.7767 12.9697C28.7767 13.9654 28.7855 14.8999 28.8031 15.7733C28.8031 16.1226 28.8559 16.4021 28.9614 16.6117C29.0846 16.8213 29.3133 16.9698 29.6475 17.0572L30.2809 17.2406V17.7908H23.6572ZM28.7767 8.85606H30.2017C31.4508 8.85606 32.3656 8.54165 32.9461 7.91281C33.5267 7.28397 33.817 6.32324 33.817 5.03063C33.817 3.73802 33.5355 2.78603 32.9725 2.17466C32.4272 1.54582 31.5387 1.2314 30.3072 1.2314H28.8031C28.8031 1.91264 28.7943 2.61135 28.7767 3.32753C28.7767 4.02624 28.7767 4.82102 28.7767 5.71187C28.7767 6.58526 28.7767 7.63332 28.7767 8.85606Z" fill="black"/>
<path d="M123.804 63.9998C123.308 63.9998 122.844 63.8688 122.411 63.6068C121.989 63.3343 121.646 62.9832 121.382 62.5535C121.129 62.1133 121.002 61.6417 121.002 61.1386V59.2206C121.002 58.7176 121.129 58.2512 121.382 57.8215C121.635 57.3918 121.973 57.0459 122.395 56.7839C122.828 56.5219 123.298 56.3909 123.804 56.3909C124.311 56.3909 124.776 56.5219 125.198 56.7839C125.631 57.0354 125.974 57.376 126.227 57.8058C126.491 58.225 126.623 58.6966 126.623 59.2206V61.1386C126.623 61.6312 126.491 62.0976 126.227 62.5378C125.974 62.9779 125.631 63.3343 125.198 63.6068C124.776 63.8688 124.311 63.9998 123.804 63.9998ZM123.804 63.4496C124.227 63.4496 124.607 63.3395 124.944 63.1194C125.282 62.8993 125.551 62.6111 125.752 62.2548C125.963 61.8984 126.069 61.5264 126.069 61.1386V59.2206C126.069 58.8329 125.968 58.466 125.768 58.1202C125.567 57.7743 125.293 57.4913 124.944 57.2712C124.607 57.0511 124.227 56.9411 123.804 56.9411C123.382 56.9411 123.002 57.0511 122.664 57.2712C122.327 57.4913 122.058 57.7743 121.857 58.1202C121.656 58.466 121.556 58.8329 121.556 59.2206V61.1386C121.556 61.5264 121.656 61.8984 121.857 62.2548C122.058 62.6111 122.327 62.8993 122.664 63.1194C123.013 63.3395 123.393 63.4496 123.804 63.4496Z" fill="black"/>
<path d="M118.699 63.9056C118.625 63.9056 118.562 63.8794 118.509 63.827C118.457 63.7641 118.43 63.696 118.43 63.6226V52.0992C118.43 52.0153 118.457 51.9524 118.509 51.9105C118.562 51.8581 118.625 51.8319 118.699 51.8319C118.784 51.8319 118.852 51.8581 118.905 51.9105C118.958 51.9524 118.984 52.0153 118.984 52.0992V63.6226C118.984 63.696 118.958 63.7641 118.905 63.827C118.852 63.8794 118.784 63.9056 118.699 63.9056Z" fill="black"/>
<path d="M114.166 63.9998C113.543 63.9998 112.989 63.8793 112.504 63.6382C112.029 63.3972 111.654 63.067 111.379 62.6478C111.105 62.2181 110.968 61.715 110.968 61.1386V59.1735C110.968 58.6704 111.094 58.2093 111.348 57.79C111.612 57.3603 111.955 57.0197 112.377 56.7682C112.81 56.5166 113.279 56.3909 113.786 56.3909C114.282 56.3909 114.741 56.5166 115.164 56.7682C115.596 57.0092 115.939 57.3446 116.193 57.7743C116.457 58.1935 116.589 58.6756 116.589 59.2206C116.589 59.5979 116.525 59.8704 116.399 60.0381C116.272 60.2058 116.108 60.3106 115.908 60.3525C115.718 60.384 115.507 60.3997 115.274 60.3997H111.522V61.1386C111.522 61.8513 111.775 62.4172 112.282 62.8365C112.789 63.2452 113.427 63.4496 114.198 63.4496C114.641 63.4496 114.979 63.3972 115.211 63.2924C115.443 63.1771 115.618 63.067 115.734 62.9622C115.86 62.8574 115.971 62.805 116.066 62.805C116.119 62.805 116.166 62.8207 116.209 62.8522C116.251 62.8836 116.283 62.9203 116.304 62.9622C116.335 63.0041 116.351 63.0461 116.351 63.088C116.351 63.1823 116.261 63.3028 116.082 63.4496C115.913 63.5963 115.665 63.7273 115.338 63.8426C115.011 63.9474 114.62 63.9998 114.166 63.9998ZM111.522 59.8495H115.084C115.475 59.8495 115.728 59.8128 115.844 59.7394C115.971 59.6661 116.034 59.5089 116.034 59.2678C116.034 58.8905 115.939 58.5237 115.749 58.1673C115.57 57.811 115.311 57.5175 114.974 57.287C114.636 57.0564 114.24 56.9411 113.786 56.9411C113.364 56.9411 112.979 57.0459 112.63 57.2555C112.292 57.4651 112.023 57.7376 111.823 58.073C111.622 58.4084 111.522 58.7752 111.522 59.1735V59.8495Z" fill="black"/>
<path d="M109.373 63.9055C108.623 63.9055 108.048 63.7325 107.647 63.3867C107.256 63.0408 107.061 62.4853 107.061 61.7203V53.1209C107.061 53.037 107.087 52.9742 107.14 52.9322C107.204 52.8798 107.267 52.8536 107.33 52.8536C107.404 52.8536 107.467 52.8798 107.52 52.9322C107.584 52.9742 107.615 53.037 107.615 53.1209V56.4852H109.753C109.827 56.4852 109.89 56.5114 109.943 56.5638C109.995 56.6162 110.022 56.6843 110.022 56.7682C110.022 56.8415 109.995 56.9044 109.943 56.9568C109.89 57.0092 109.827 57.0354 109.753 57.0354H107.615V61.7203C107.615 62.3176 107.747 62.7421 108.011 62.9937C108.275 63.2347 108.729 63.3552 109.373 63.3552H109.737C109.811 63.3552 109.874 63.3814 109.927 63.4338C109.98 63.4758 110.006 63.5386 110.006 63.6225C110.006 63.6959 109.98 63.764 109.927 63.8269C109.874 63.8793 109.811 63.9055 109.737 63.9055H109.373Z" fill="black"/>
<path d="M103.023 63.9998C102.548 63.9998 102.136 63.9422 101.788 63.8269C101.45 63.7011 101.186 63.5596 100.996 63.4024C100.806 63.2452 100.711 63.1037 100.711 62.9779C100.711 62.9255 100.722 62.8836 100.743 62.8522C100.764 62.8103 100.791 62.7788 100.822 62.7579C100.864 62.7264 100.901 62.7107 100.933 62.7107C101.028 62.7107 101.139 62.7736 101.266 62.8993C101.403 63.0146 101.603 63.1352 101.867 63.2609C102.131 63.3867 102.511 63.4496 103.007 63.4496C103.672 63.4496 104.147 63.3238 104.432 63.0723C104.717 62.8103 104.86 62.5011 104.86 62.1447C104.86 61.736 104.765 61.4216 104.575 61.2015C104.385 60.9709 104.137 60.798 103.831 60.6827C103.524 60.5569 103.203 60.4469 102.865 60.3525C102.527 60.2582 102.205 60.1482 101.899 60.0224C101.593 59.8862 101.345 59.6975 101.155 59.4565C100.965 59.2049 100.87 58.8643 100.87 58.4346C100.87 58.1202 100.949 57.8058 101.107 57.4913C101.276 57.1769 101.529 56.9149 101.867 56.7053C102.216 56.4957 102.664 56.3909 103.213 56.3909C103.53 56.3909 103.836 56.4276 104.131 56.5009C104.427 56.5638 104.67 56.6476 104.86 56.7525C105.05 56.8468 105.145 56.9463 105.145 57.0511C105.145 57.0826 105.129 57.1245 105.097 57.1769C105.076 57.2293 105.044 57.2765 105.002 57.3184C104.971 57.3498 104.928 57.3656 104.876 57.3656C104.812 57.3656 104.712 57.3289 104.575 57.2555C104.438 57.1822 104.258 57.114 104.036 57.0511C103.815 56.9778 103.546 56.9411 103.229 56.9411C102.786 56.9411 102.432 57.0249 102.168 57.1926C101.904 57.3498 101.714 57.5437 101.598 57.7743C101.482 57.9944 101.424 58.2093 101.424 58.4189C101.424 58.7647 101.519 59.032 101.709 59.2206C101.899 59.4093 102.147 59.556 102.453 59.6608C102.759 59.7656 103.081 59.8652 103.419 59.9595C103.757 60.0538 104.079 60.1796 104.385 60.3368C104.691 60.4836 104.939 60.6984 105.129 60.9814C105.319 61.2539 105.414 61.6312 105.414 62.1133C105.414 62.6897 105.203 63.1509 104.781 63.4967C104.358 63.8321 103.773 63.9998 103.023 63.9998Z" fill="black"/>
<path d="M96.1696 63.9998C95.5574 63.9998 95.0349 63.8321 94.6021 63.4967C94.1799 63.1509 93.9688 62.6268 93.9688 61.9246C93.9688 61.3692 94.1218 60.9447 94.4279 60.6512C94.7446 60.3473 95.1774 60.1377 95.7263 60.0224C96.2857 59.9071 96.9296 59.8495 97.6579 59.8495H98.5446V59.4093C98.5446 59.011 98.476 58.6232 98.3388 58.2459C98.2015 57.8686 97.9799 57.5595 97.6738 57.3184C97.3677 57.0669 96.9613 56.9411 96.4546 56.9411C96.1274 56.9411 95.8529 56.9778 95.6313 57.0511C95.4096 57.114 95.2301 57.1822 95.0929 57.2555C94.9662 57.3289 94.8713 57.3656 94.8079 57.3656C94.7235 57.3656 94.6549 57.3289 94.6021 57.2555C94.5493 57.1717 94.5229 57.1036 94.5229 57.0511C94.5229 56.9463 94.6179 56.8468 94.8079 56.7525C95.0085 56.6476 95.2565 56.5638 95.5521 56.5009C95.8582 56.4276 96.1696 56.3909 96.4863 56.3909C97.1407 56.3909 97.6579 56.5376 98.0379 56.8311C98.4179 57.114 98.6871 57.4861 98.8454 57.9472C99.0143 58.3979 99.0988 58.8853 99.0988 59.4093V63.6225C99.0988 63.6959 99.0724 63.764 99.0196 63.8269C98.9774 63.8793 98.914 63.9055 98.8296 63.9055C98.7557 63.9055 98.6871 63.8793 98.6238 63.8269C98.571 63.764 98.5446 63.6959 98.5446 63.6225V62.805C98.2807 63.109 97.9482 63.3867 97.5471 63.6382C97.1565 63.8793 96.6974 63.9998 96.1696 63.9998ZM96.1538 63.4496C96.5549 63.4496 96.9349 63.3552 97.2938 63.1666C97.6632 62.9675 97.964 62.7317 98.1963 62.4592C98.4285 62.1867 98.5446 61.9404 98.5446 61.7203V60.3997H97.6738C97.1354 60.3997 96.6235 60.4312 96.1379 60.494C95.6629 60.5569 95.2724 60.6984 94.9663 60.9185C94.6707 61.1281 94.5229 61.4635 94.5229 61.9246C94.5229 62.4487 94.6813 62.8365 94.9979 63.088C95.3146 63.329 95.6999 63.4496 96.1538 63.4496Z" fill="black"/>
<path d="M89.6961 63.9999C89.1367 63.9999 88.6194 63.8951 88.1444 63.6855C87.6694 63.4654 87.2894 63.1195 87.0044 62.6479C86.73 62.1763 86.5928 61.5474 86.5928 60.7614V55.6521C86.5928 54.866 86.7353 54.2372 87.0203 53.7656C87.3158 53.2939 87.7011 52.9533 88.1761 52.7437C88.6511 52.5236 89.1736 52.4136 89.7436 52.4136C90.4192 52.4136 90.9786 52.5341 91.422 52.7752C91.8758 53.0162 92.2136 53.3254 92.4353 53.7027C92.6675 54.08 92.7836 54.473 92.7836 54.8818C92.7836 55.0599 92.7572 55.1805 92.7045 55.2433C92.6622 55.2957 92.5936 55.322 92.4986 55.322C92.3614 55.322 92.277 55.2905 92.2453 55.2276C92.2242 55.1543 92.2136 55.0914 92.2136 55.039C92.2031 54.8503 92.1608 54.6407 92.087 54.4101C92.0236 54.1691 91.9022 53.9437 91.7228 53.7341C91.5539 53.514 91.3058 53.3359 90.9786 53.1996C90.6619 53.0529 90.245 52.9795 89.7278 52.9795C88.8939 52.9795 88.2553 53.1996 87.8119 53.6398C87.3792 54.0695 87.1628 54.7403 87.1628 55.6521V60.7614C87.1628 61.6837 87.3844 62.3597 87.8278 62.7894C88.2711 63.2191 88.9256 63.434 89.7911 63.434C90.3189 63.434 90.7358 63.3658 91.042 63.2296C91.3481 63.0933 91.5803 62.9204 91.7386 62.7108C91.897 62.5012 92.0078 62.2759 92.0711 62.0348C92.1345 61.7937 92.182 61.5736 92.2136 61.3745C92.2242 61.3012 92.2453 61.2383 92.277 61.1859C92.3086 61.123 92.3825 61.0915 92.4986 61.0915C92.5936 61.0915 92.6622 61.123 92.7045 61.1859C92.7572 61.2487 92.7836 61.3693 92.7836 61.5474C92.7836 61.9457 92.6675 62.3335 92.4353 62.7108C92.2031 63.0881 91.8547 63.3973 91.3903 63.6383C90.9364 63.8794 90.3717 63.9999 89.6961 63.9999Z" fill="black"/>
<path d="M78.6082 63.9998C78.1121 63.9998 77.6476 63.8688 77.2148 63.6068C76.7926 63.3343 76.4496 62.9832 76.1857 62.5535C75.9323 62.1133 75.8057 61.6417 75.8057 61.1386V59.2206C75.8057 58.7176 75.9323 58.2512 76.1857 57.8215C76.439 57.3918 76.7768 57.0459 77.199 56.7839C77.6318 56.5219 78.1015 56.3909 78.6082 56.3909C79.1148 56.3909 79.5793 56.5219 80.0015 56.7839C80.4343 57.0354 80.7773 57.376 81.0307 57.8058C81.2946 58.225 81.4265 58.6966 81.4265 59.2206V61.1386C81.4265 61.6312 81.2946 62.0976 81.0307 62.5378C80.7773 62.9779 80.4343 63.3343 80.0015 63.6068C79.5793 63.8688 79.1148 63.9998 78.6082 63.9998ZM78.6082 63.4496C79.0304 63.4496 79.4104 63.3395 79.7482 63.1194C80.086 62.8993 80.3551 62.6111 80.5557 62.2548C80.7668 61.8984 80.8723 61.5264 80.8723 61.1386V59.2206C80.8723 58.8329 80.7721 58.466 80.5715 58.1202C80.371 57.7743 80.0965 57.4913 79.7482 57.2712C79.4104 57.0511 79.0304 56.9411 78.6082 56.9411C78.1859 56.9411 77.8059 57.0511 77.4682 57.2712C77.1304 57.4913 76.8612 57.7743 76.6607 58.1202C76.4601 58.466 76.3598 58.8329 76.3598 59.2206V61.1386C76.3598 61.5264 76.4601 61.8984 76.6607 62.2548C76.8612 62.6111 77.1304 62.8993 77.4682 63.1194C77.8165 63.3395 78.1965 63.4496 78.6082 63.4496Z" fill="black"/>
<path d="M71.2178 63.9999C70.7216 63.9999 70.2572 63.8689 69.8244 63.6069C69.3916 63.3344 69.0433 62.9781 68.7794 62.5379C68.5261 62.0977 68.3994 61.6313 68.3994 61.1387V59.2208C68.3994 58.6967 68.5261 58.2251 68.7794 57.8059C69.0433 57.3762 69.3916 57.0355 69.8244 56.784C70.2572 56.522 70.7322 56.391 71.2494 56.391C71.7772 56.391 72.2205 56.5168 72.5794 56.7683C72.9383 57.0093 73.2022 57.2818 73.3711 57.5858V52.0992C73.3711 52.0153 73.3975 51.9524 73.4503 51.9105C73.5136 51.8581 73.5822 51.8319 73.6561 51.8319C73.7405 51.8319 73.8039 51.8581 73.8461 51.9105C73.8989 51.9524 73.9253 52.0153 73.9253 52.0992V63.6226C73.9253 63.696 73.8989 63.7641 73.8461 63.827C73.8039 63.8794 73.7405 63.9056 73.6561 63.9056C73.5822 63.9056 73.5136 63.8794 73.4503 63.827C73.3975 63.7641 73.3711 63.696 73.3711 63.6226V62.8051C73.2022 63.13 72.9225 63.413 72.5319 63.6541C72.1414 63.8846 71.7033 63.9999 71.2178 63.9999ZM71.1861 63.4497C71.6083 63.4497 71.983 63.3449 72.3103 63.1353C72.6375 62.9152 72.8961 62.6689 73.0861 62.3964C73.2761 62.1239 73.3711 61.8986 73.3711 61.7204V59.2208C73.3711 58.7386 73.2655 58.3299 73.0544 57.9945C72.8433 57.6591 72.5689 57.4024 72.2311 57.2242C71.9039 57.0355 71.5608 56.9412 71.2019 56.9412C70.7903 56.9412 70.4155 57.0513 70.0778 57.2714C69.74 57.4915 69.4655 57.7744 69.2544 58.1203C69.0539 58.4661 68.9536 58.833 68.9536 59.2208V61.1387C68.9536 61.5265 69.0539 61.8986 69.2544 62.2549C69.4655 62.6112 69.74 62.8995 70.0778 63.1196C70.4155 63.3396 70.785 63.4497 71.1861 63.4497Z" fill="black"/>
<path d="M60.4977 63.9998C59.8855 63.9998 59.363 63.8321 58.9302 63.4967C58.508 63.1509 58.2969 62.6268 58.2969 61.9246C58.2969 61.3692 58.4499 60.9447 58.756 60.6512C59.0727 60.3473 59.5055 60.1377 60.0544 60.0224C60.6138 59.9071 61.2577 59.8495 61.9861 59.8495H62.8727V59.4093C62.8727 59.011 62.8041 58.6232 62.6669 58.2459C62.5297 57.8686 62.308 57.5595 62.0019 57.3184C61.6958 57.0669 61.2894 56.9411 60.7827 56.9411C60.4555 56.9411 60.181 56.9778 59.9594 57.0511C59.7377 57.114 59.5583 57.1822 59.421 57.2555C59.2944 57.3289 59.1994 57.3656 59.136 57.3656C59.0516 57.3656 58.983 57.3289 58.9302 57.2555C58.8774 57.1717 58.851 57.1036 58.851 57.0511C58.851 56.9463 58.946 56.8468 59.136 56.7525C59.3366 56.6476 59.5847 56.5638 59.8802 56.5009C60.1863 56.4276 60.4977 56.3909 60.8144 56.3909C61.4688 56.3909 61.9861 56.5376 62.3661 56.8311C62.7461 57.114 63.0152 57.4861 63.1736 57.9472C63.3424 58.3979 63.4269 58.8853 63.4269 59.4093V63.6225C63.4269 63.6959 63.4005 63.764 63.3477 63.8269C63.3055 63.8793 63.2422 63.9055 63.1577 63.9055C63.0838 63.9055 63.0152 63.8793 62.9519 63.8269C62.8991 63.764 62.8727 63.6959 62.8727 63.6225V62.805C62.6088 63.109 62.2763 63.3867 61.8752 63.6382C61.4847 63.8793 61.0255 63.9998 60.4977 63.9998ZM60.4819 63.4496C60.883 63.4496 61.263 63.3552 61.6219 63.1666C61.9913 62.9675 62.2922 62.7317 62.5244 62.4592C62.7566 62.1867 62.8727 61.9404 62.8727 61.7203V60.3997H62.0019C61.4635 60.3997 60.9516 60.4312 60.466 60.494C59.991 60.5569 59.6005 60.6984 59.2944 60.9185C58.9988 61.1281 58.851 61.4635 58.851 61.9246C58.851 62.4487 59.0094 62.8365 59.326 63.088C59.6427 63.329 60.028 63.4496 60.4819 63.4496Z" fill="black"/>
<path d="M54.6458 63.9998C54.5719 63.9998 54.5138 63.9841 54.4716 63.9527C54.4294 63.9212 54.3977 63.8741 54.3766 63.8112L51.9066 56.9883C51.896 56.9673 51.8802 56.9359 51.8591 56.894C51.8485 56.8416 51.8433 56.7996 51.8433 56.7682C51.8433 56.7158 51.8538 56.6686 51.8749 56.6267C51.9066 56.5848 51.9435 56.5534 51.9858 56.5324C52.028 56.501 52.0755 56.4852 52.1283 56.4852C52.181 56.4852 52.2338 56.501 52.2866 56.5324C52.3394 56.5638 52.3763 56.6058 52.3974 56.6582L54.6458 62.8365L56.8783 56.7525C56.8994 56.6896 56.9205 56.632 56.9416 56.5796C56.9733 56.5167 57.0419 56.4852 57.1474 56.4852C57.2002 56.4852 57.2477 56.4957 57.2899 56.5167C57.3322 56.5376 57.3691 56.5691 57.4008 56.611C57.4324 56.6529 57.4483 56.7001 57.4483 56.7525C57.4483 56.7944 57.4377 56.8416 57.4166 56.894C57.4061 56.9359 57.3955 56.9673 57.3849 56.9883L54.9149 63.8112C54.8938 63.8636 54.8569 63.9055 54.8041 63.937C54.7619 63.9789 54.7091 63.9998 54.6458 63.9998Z" fill="black"/>
<path d="M50.0314 63.9056C49.9575 63.9056 49.8942 63.8794 49.8414 63.827C49.7886 63.7641 49.7622 63.696 49.7622 63.6226V52.0992C49.7622 52.0153 49.7886 51.9524 49.8414 51.9105C49.8942 51.8581 49.9575 51.8319 50.0314 51.8319C50.1158 51.8319 50.1844 51.8581 50.2372 51.9105C50.29 51.9524 50.3164 52.0153 50.3164 52.0992V63.6226C50.3164 63.696 50.29 63.7641 50.2372 63.827C50.1844 63.8794 50.1158 63.9056 50.0314 63.9056Z" fill="black"/>
<path d="M44.6027 63.9998C43.9905 63.9998 43.468 63.8321 43.0352 63.4967C42.613 63.1509 42.4019 62.6268 42.4019 61.9246C42.4019 61.3692 42.5549 60.9447 42.861 60.6512C43.1777 60.3473 43.6105 60.1377 44.1594 60.0224C44.7188 59.9071 45.3627 59.8495 46.091 59.8495H46.9777V59.4093C46.9777 59.011 46.9091 58.6232 46.7719 58.2459C46.6346 57.8686 46.413 57.5595 46.1069 57.3184C45.8008 57.0669 45.3944 56.9411 44.8877 56.9411C44.5605 56.9411 44.286 56.9778 44.0644 57.0511C43.8427 57.114 43.6632 57.1822 43.526 57.2555C43.3994 57.3289 43.3044 57.3656 43.241 57.3656C43.1566 57.3656 43.088 57.3289 43.0352 57.2555C42.9824 57.1717 42.956 57.1036 42.956 57.0511C42.956 56.9463 43.051 56.8468 43.241 56.7525C43.4416 56.6476 43.6896 56.5638 43.9852 56.5009C44.2913 56.4276 44.6027 56.3909 44.9194 56.3909C45.5738 56.3909 46.091 56.5376 46.471 56.8311C46.851 57.114 47.1202 57.4861 47.2785 57.9472C47.4474 58.3979 47.5319 58.8853 47.5319 59.4093V63.6225C47.5319 63.6959 47.5055 63.764 47.4527 63.8269C47.4105 63.8793 47.3471 63.9055 47.2627 63.9055C47.1888 63.9055 47.1202 63.8793 47.0569 63.8269C47.0041 63.764 46.9777 63.6959 46.9777 63.6225V62.805C46.7138 63.109 46.3813 63.3867 45.9802 63.6382C45.5896 63.8793 45.1305 63.9998 44.6027 63.9998ZM44.5869 63.4496C44.988 63.4496 45.368 63.3552 45.7269 63.1666C46.0963 62.9675 46.3971 62.7317 46.6294 62.4592C46.8616 62.1867 46.9777 61.9404 46.9777 61.7203V60.3997H46.1069C45.5685 60.3997 45.0566 60.4312 44.571 60.494C44.096 60.5569 43.7055 60.6984 43.3994 60.9185C43.1038 61.1281 42.956 61.4635 42.956 61.9246C42.956 62.4487 43.1144 62.8365 43.431 63.088C43.7477 63.329 44.133 63.4496 44.5869 63.4496Z" fill="black"/>
<path d="M35.5704 63.9055C35.4965 63.9055 35.4332 63.8793 35.3804 63.8269C35.3277 63.764 35.3013 63.6959 35.3013 63.6225V56.7525C35.3013 56.6686 35.3277 56.6057 35.3804 56.5638C35.4332 56.5114 35.4965 56.4852 35.5704 56.4852C35.6549 56.4852 35.7235 56.5114 35.7763 56.5638C35.829 56.6057 35.8554 56.6686 35.8554 56.7525V57.5857C36.0349 57.2817 36.2988 57.0092 36.6471 56.7682C37.006 56.5166 37.4493 56.3909 37.9771 56.3909C38.4943 56.3909 38.9693 56.5219 39.4021 56.7839C39.8349 57.0354 40.178 57.376 40.4313 57.8058C40.6952 58.225 40.8271 58.6966 40.8271 59.2206V63.6225C40.8271 63.7168 40.7955 63.7902 40.7321 63.8426C40.6793 63.8845 40.616 63.9055 40.5421 63.9055C40.4788 63.9055 40.4154 63.8845 40.3521 63.8426C40.2993 63.7902 40.2729 63.7168 40.2729 63.6225V59.2206C40.2729 58.8329 40.1674 58.466 39.9563 58.1202C39.7557 57.7743 39.4866 57.4913 39.1488 57.2712C38.811 57.0511 38.4363 56.9411 38.0246 56.9411C37.6657 56.9411 37.3174 57.0354 36.9796 57.2241C36.6524 57.4023 36.3832 57.659 36.1721 57.9944C35.961 58.3298 35.8554 58.7385 35.8554 59.2206V63.6225C35.8554 63.6959 35.829 63.764 35.7763 63.8269C35.7235 63.8793 35.6549 63.9055 35.5704 63.9055Z" fill="black"/>
<path d="M31.1798 63.9998C30.557 63.9998 30.0028 63.8793 29.5173 63.6382C29.0423 63.3972 28.6676 63.067 28.3931 62.6478C28.1187 62.2181 27.9814 61.715 27.9814 61.1386V59.1735C27.9814 58.6704 28.1081 58.2093 28.3614 57.79C28.6253 57.3603 28.9684 57.0197 29.3906 56.7682C29.8234 56.5166 30.2931 56.3909 30.7998 56.3909C31.2959 56.3909 31.7551 56.5166 32.1773 56.7682C32.6101 57.0092 32.9531 57.3446 33.2065 57.7743C33.4703 58.1935 33.6023 58.6756 33.6023 59.2206C33.6023 59.5979 33.539 59.8704 33.4123 60.0381C33.2856 60.2058 33.122 60.3106 32.9215 60.3525C32.7315 60.384 32.5203 60.3997 32.2881 60.3997H28.5356V61.1386C28.5356 61.8513 28.7889 62.4172 29.2956 62.8365C29.8023 63.2452 30.4409 63.4496 31.2115 63.4496C31.6548 63.4496 31.9926 63.3972 32.2248 63.2924C32.457 63.1771 32.6312 63.067 32.7473 62.9622C32.874 62.8574 32.9848 62.805 33.0798 62.805C33.1326 62.805 33.1801 62.8207 33.2223 62.8522C33.2645 62.8836 33.2962 62.9203 33.3173 62.9622C33.349 63.0041 33.3648 63.0461 33.3648 63.088C33.3648 63.1823 33.2751 63.3028 33.0956 63.4496C32.9267 63.5963 32.6787 63.7273 32.3515 63.8426C32.0242 63.9474 31.6337 63.9998 31.1798 63.9998ZM28.5356 59.8495H32.0981C32.4887 59.8495 32.742 59.8128 32.8581 59.7394C32.9848 59.6661 33.0481 59.5089 33.0481 59.2678C33.0481 58.8905 32.9531 58.5237 32.7631 58.1673C32.5837 57.811 32.3251 57.5175 31.9873 57.287C31.6495 57.0564 31.2537 56.9411 30.7998 56.9411C30.3776 56.9411 29.9923 57.0459 29.6439 57.2555C29.3062 57.4651 29.037 57.7376 28.8364 58.073C28.6359 58.4084 28.5356 58.7752 28.5356 59.1735V59.8495Z" fill="black"/>
<path d="M21.0731 63.9056C20.9992 63.9056 20.9306 63.8846 20.8673 63.8427C20.8145 63.7903 20.7881 63.7169 20.7881 63.6226V52.6808C20.7881 52.6075 20.8145 52.5498 20.8673 52.5079C20.92 52.4555 20.9886 52.4241 21.0731 52.4136H23.8756C24.4562 52.4136 24.9787 52.5236 25.4431 52.7437C25.9181 52.9533 26.2928 53.2939 26.5673 53.7656C26.8417 54.2372 26.9789 54.866 26.9789 55.6521V55.8407C26.9789 56.6268 26.8417 57.2609 26.5673 57.743C26.2928 58.2146 25.9181 58.5605 25.4431 58.7806C24.9787 58.9902 24.4562 59.095 23.8756 59.095H21.3581V63.6226C21.3581 63.7169 21.3264 63.7903 21.2631 63.8427C21.2103 63.8846 21.147 63.9056 21.0731 63.9056ZM21.3581 58.529H23.8756C24.6673 58.529 25.2848 58.3089 25.7281 57.8687C26.182 57.4286 26.4089 56.7526 26.4089 55.8407V55.6521C26.4089 54.7403 26.182 54.0695 25.7281 53.6398C25.2848 53.1996 24.6673 52.9795 23.8756 52.9795H21.3581V58.529Z" fill="black"/>
<path d="M81.9395 28.0356C82.3969 27.5814 82.8543 27.1185 83.3117 26.6469C83.7691 26.1752 84.2177 25.7211 84.6575 25.2844C85.0797 24.8302 85.4228 24.5333 85.6867 24.3935C85.9682 24.2363 86.2409 24.1577 86.5047 24.1577C86.839 24.1577 87.1117 24.2625 87.3228 24.4721C87.5339 24.6817 87.6395 24.935 87.6395 25.232C87.6395 25.5115 87.5163 25.7822 87.27 26.0442C87.0413 26.2888 86.6455 26.5421 86.0825 26.8041C85.4316 27.0836 84.7983 27.363 84.1825 27.6425C83.5844 27.922 82.9598 28.2015 82.3089 28.481L81.9395 28.0356Z" fill="#368508"/>
<path d="M81.8999 27.1721C81.6199 26.9853 81.3358 26.7997 81.0476 26.6152C80.7593 26.4307 80.4806 26.2486 80.2114 26.0691C79.9365 25.9011 79.7471 25.7556 79.6432 25.6325C79.5286 25.5023 79.4523 25.3668 79.4144 25.2262C79.3663 25.0481 79.3765 24.8897 79.445 24.7509C79.5136 24.6121 79.6178 24.5241 79.7579 24.4868C79.8897 24.4518 80.0351 24.4834 80.1942 24.5817C80.3424 24.6729 80.5188 24.852 80.7233 25.1191C80.9487 25.4309 81.1716 25.7332 81.392 26.0263C81.6098 26.3099 81.8314 26.6076 82.0569 26.9193L81.8999 27.1721Z" fill="#368508"/>
<g filter="url(#filter0_i_79_520)">
<path d="M82.4174 30.9665C82.4174 32.4549 81.2021 33.6615 79.7031 33.6615C78.204 33.6615 76.9888 32.4549 76.9888 30.9665C76.9888 29.4781 78.204 28.2715 79.7031 28.2715C81.2021 28.2715 82.4174 29.4781 82.4174 30.9665Z" fill="#E0ABE1"/>
</g>
<g filter="url(#filter1_i_79_520)">
<path d="M82.4174 39.9498C82.4174 41.4382 81.2021 42.6448 79.7031 42.6448C78.204 42.6448 76.9888 41.4382 76.9888 39.9498C76.9888 38.4614 78.204 37.2548 79.7031 37.2548C81.2021 37.2548 82.4174 38.4614 82.4174 39.9498Z" fill="#E0ABE1"/>
</g>
<g filter="url(#filter2_i_79_520)">
<path d="M79.7035 35.4582C79.7035 36.9466 78.4883 38.1532 76.9892 38.1532C75.4901 38.1532 74.2749 36.9466 74.2749 35.4582C74.2749 33.9698 75.4901 32.7632 76.9892 32.7632C78.4883 32.7632 79.7035 33.9698 79.7035 35.4582Z" fill="#E0ABE1"/>
</g>
<g filter="url(#filter3_i_79_520)">
<path d="M85.1327 35.4582C85.1327 36.9466 83.9175 38.1532 82.4184 38.1532C80.9193 38.1532 79.7041 36.9466 79.7041 35.4582C79.7041 33.9698 80.9193 32.7632 82.4184 32.7632C83.9175 32.7632 85.1327 33.9698 85.1327 35.4582Z" fill="#E0ABE1"/>
</g>
<g filter="url(#filter4_i_79_520)">
<path d="M85.1327 44.4416C85.1327 45.93 83.9175 47.1366 82.4184 47.1366C80.9193 47.1366 79.7041 45.93 79.7041 44.4416C79.7041 42.9532 80.9193 41.7466 82.4184 41.7466C83.9175 41.7466 85.1327 42.9532 85.1327 44.4416Z" fill="#E0ABE1"/>
</g>
<g filter="url(#filter5_i_79_520)">
<path d="M87.8466 30.9665C87.8466 32.4549 86.6313 33.6615 85.1323 33.6615C83.6332 33.6615 82.418 32.4549 82.418 30.9665C82.418 29.4781 83.6332 28.2715 85.1323 28.2715C86.6313 28.2715 87.8466 29.4781 87.8466 30.9665Z" fill="#E0ABE1"/>
</g>
<g filter="url(#filter6_i_79_520)">
<path d="M87.8466 39.9498C87.8466 41.4382 86.6313 42.6448 85.1323 42.6448C83.6332 42.6448 82.418 41.4382 82.418 39.9498C82.418 38.4614 83.6332 37.2548 85.1323 37.2548C86.6313 37.2548 87.8466 38.4614 87.8466 39.9498Z" fill="#E0ABE1"/>
</g>
<g filter="url(#filter7_i_79_520)">
<path d="M90.5609 35.4582C90.5609 36.9466 89.3457 38.1532 87.8466 38.1532C86.3476 38.1532 85.1323 36.9466 85.1323 35.4582C85.1323 33.9698 86.3476 32.7632 87.8466 32.7632C89.3457 32.7632 90.5609 33.9698 90.5609 35.4582Z" fill="#E0ABE1"/>
</g>
<defs>
<filter id="filter0_i_79_520" x="76.9888" y="28.2715" width="8.42871" height="8.39001" filterUnits="userSpaceOnUse" color-interpolation-filters="sRGB">
<feFlood flood-opacity="0" result="BackgroundImageFix"/>
<feBlend mode="normal" in="SourceGraphic" in2="BackgroundImageFix" result="shape"/>
<feColorMatrix in="SourceAlpha" type="matrix" values="0 0 0 0 0 0 0 0 0 0 0 0 0 0 0 0 0 0 127 0" result="hardAlpha"/>
<feOffset dx="3" dy="3"/>
<feGaussianBlur stdDeviation="2.5"/>
<feComposite in2="hardAlpha" operator="arithmetic" k2="-1" k3="1"/>
<feColorMatrix type="matrix" values="0 0 0 0 0.580392 0 0 0 0 0.262745 0 0 0 0 0.588235 0 0 0 0.7 0"/>
<feBlend mode="normal" in2="shape" result="effect1_innerShadow_79_520"/>
</filter>
<filter id="filter1_i_79_520" x="76.9888" y="37.2548" width="8.42871" height="8.39001" filterUnits="userSpaceOnUse" color-interpolation-filters="sRGB">
<feFlood flood-opacity="0" result="BackgroundImageFix"/>
<feBlend mode="normal" in="SourceGraphic" in2="BackgroundImageFix" result="shape"/>
<feColorMatrix in="SourceAlpha" type="matrix" values="0 0 0 0 0 0 0 0 0 0 0 0 0 0 0 0 0 0 127 0" result="hardAlpha"/>
<feOffset dx="3" dy="3"/>
<feGaussianBlur stdDeviation="2.5"/>
<feComposite in2="hardAlpha" operator="arithmetic" k2="-1" k3="1"/>
<feColorMatrix type="matrix" values="0 0 0 0 0.580392 0 0 0 0 0.262745 0 0 0 0 0.588235 0 0 0 0.7 0"/>
<feBlend mode="normal" in2="shape" result="effect1_innerShadow_79_520"/>
</filter>
<filter id="filter2_i_79_520" x="74.2749" y="32.7632" width="8.42871" height="8.39001" filterUnits="userSpaceOnUse" color-interpolation-filters="sRGB">
<feFlood flood-opacity="0" result="BackgroundImageFix"/>
<feBlend mode="normal" in="SourceGraphic" in2="BackgroundImageFix" result="shape"/>
<feColorMatrix in="SourceAlpha" type="matrix" values="0 0 0 0 0 0 0 0 0 0 0 0 0 0 0 0 0 0 127 0" result="hardAlpha"/>
<feOffset dx="3" dy="3"/>
<feGaussianBlur stdDeviation="2.5"/>
<feComposite in2="hardAlpha" operator="arithmetic" k2="-1" k3="1"/>
<feColorMatrix type="matrix" values="0 0 0 0 0.580392 0 0 0 0 0.262745 0 0 0 0 0.588235 0 0 0 0.7 0"/>
<feBlend mode="normal" in2="shape" result="effect1_innerShadow_79_520"/>
</filter>
<filter id="filter3_i_79_520" x="79.7041" y="32.7632" width="8.42871" height="8.39001" filterUnits="userSpaceOnUse" color-interpolation-filters="sRGB">
<feFlood flood-opacity="0" result="BackgroundImageFix"/>
<feBlend mode="normal" in="SourceGraphic" in2="BackgroundImageFix" result="shape"/>
<feColorMatrix in="SourceAlpha" type="matrix" values="0 0 0 0 0 0 0 0 0 0 0 0 0 0 0 0 0 0 127 0" result="hardAlpha"/>
<feOffset dx="3" dy="3"/>
<feGaussianBlur stdDeviation="2.5"/>
<feComposite in2="hardAlpha" operator="arithmetic" k2="-1" k3="1"/>
<feColorMatrix type="matrix" values="0 0 0 0 0.580392 0 0 0 0 0.262745 0 0 0 0 0.588235 0 0 0 0.7 0"/>
<feBlend mode="normal" in2="shape" result="effect1_innerShadow_79_520"/>
</filter>
<filter id="filter4_i_79_520" x="79.7041" y="41.7466" width="8.42871" height="8.39001" filterUnits="userSpaceOnUse" color-interpolation-filters="sRGB">
<feFlood flood-opacity="0" result="BackgroundImageFix"/>
<feBlend mode="normal" in="SourceGraphic" in2="BackgroundImageFix" result="shape"/>
<feColorMatrix in="SourceAlpha" type="matrix" values="0 0 0 0 0 0 0 0 0 0 0 0 0 0 0 0 0 0 127 0" result="hardAlpha"/>
<feOffset dx="3" dy="3"/>
<feGaussianBlur stdDeviation="2.5"/>
<feComposite in2="hardAlpha" operator="arithmetic" k2="-1" k3="1"/>
<feColorMatrix type="matrix" values="0 0 0 0 0.580392 0 0 0 0 0.262745 0 0 0 0 0.588235 0 0 0 0.7 0"/>
<feBlend mode="normal" in2="shape" result="effect1_innerShadow_79_520"/>
</filter>
<filter id="filter5_i_79_520" x="82.418" y="28.2715" width="8.42871" height="8.39001" filterUnits="userSpaceOnUse" color-interpolation-filters="sRGB">
<feFlood flood-opacity="0" result="BackgroundImageFix"/>
<feBlend mode="normal" in="SourceGraphic" in2="BackgroundImageFix" result="shape"/>
<feColorMatrix in="SourceAlpha" type="matrix" values="0 0 0 0 0 0 0 0 0 0 0 0 0 0 0 0 0 0 127 0" result="hardAlpha"/>
<feOffset dx="3" dy="3"/>
<feGaussianBlur stdDeviation="2.5"/>
<feComposite in2="hardAlpha" operator="arithmetic" k2="-1" k3="1"/>
<feColorMatrix type="matrix" values="0 0 0 0 0.580392 0 0 0 0 0.262745 0 0 0 0 0.588235 0 0 0 0.7 0"/>
<feBlend mode="normal" in2="shape" result="effect1_innerShadow_79_520"/>
</filter>
<filter id="filter6_i_79_520" x="82.418" y="37.2548" width="8.42871" height="8.39001" filterUnits="userSpaceOnUse" color-interpolation-filters="sRGB">
<feFlood flood-opacity="0" result="BackgroundImageFix"/>
<feBlend mode="normal" in="SourceGraphic" in2="BackgroundImageFix" result="shape"/>
<feColorMatrix in="SourceAlpha" type="matrix" values="0 0 0 0 0 0 0 0 0 0 0 0 0 0 0 0 0 0 127 0" result="hardAlpha"/>
<feOffset dx="3" dy="3"/>
<feGaussianBlur stdDeviation="2.5"/>
<feComposite in2="hardAlpha" operator="arithmetic" k2="-1" k3="1"/>
<feColorMatrix type="matrix" values="0 0 0 0 0.580392 0 0 0 0 0.262745 0 0 0 0 0.588235 0 0 0 0.7 0"/>
<feBlend mode="normal" in2="shape" result="effect1_innerShadow_79_520"/>
</filter>
<filter id="filter7_i_79_520" x="85.1323" y="32.7632" width="8.42871" height="8.39001" filterUnits="userSpaceOnUse" color-interpolation-filters="sRGB">
<feFlood flood-opacity="0" result="BackgroundImageFix"/>
<feBlend mode="normal" in="SourceGraphic" in2="BackgroundImageFix" result="shape"/>
<feColorMatrix in="SourceAlpha" type="matrix" values="0 0 0 0 0 0 0 0 0 0 0 0 0 0 0 0 0 0 127 0" result="hardAlpha"/>
<feOffset dx="3" dy="3"/>
<feGaussianBlur stdDeviation="2.5"/>
<feComposite in2="hardAlpha" operator="arithmetic" k2="-1" k3="1"/>
<feColorMatrix type="matrix" values="0 0 0 0 0.580392 0 0 0 0 0.262745 0 0 0 0 0.588235 0 0 0 0.7 0"/>
<feBlend mode="normal" in2="shape" result="effect1_innerShadow_79_520"/>
</filter>
</defs>
</svg>
