<svg width="17" height="24" viewBox="0 0 17 24" fill="none" xmlns="http://www.w3.org/2000/svg">
<path d="M7.93945 4.03555C8.39686 3.58139 8.85427 3.11849 9.31167 2.64687C9.76908 2.17524 10.2177 1.72108 10.6575 1.28438C11.0797 0.830224 11.4228 0.533272 11.6867 0.39353C11.9682 0.23632 12.2409 0.157715 12.5047 0.157715C12.839 0.157715 13.1117 0.262521 13.3228 0.472133C13.5339 0.681746 13.6395 0.935028 13.6395 1.23198C13.6395 1.51146 13.5163 1.78221 13.27 2.04423C13.0413 2.28878 12.6455 2.54206 12.0825 2.80407C11.4316 3.08356 10.7983 3.36304 10.1825 3.64253C9.58437 3.92201 8.95982 4.20149 8.3089 4.48098L7.93945 4.03555Z" fill="#368508"/>
<path d="M7.89989 3.17207C7.6199 2.98535 7.33579 2.79972 7.04757 2.61519C6.75934 2.43066 6.48062 2.24862 6.2114 2.06908C5.93647 1.90111 5.74708 1.75559 5.64322 1.63252C5.52859 1.50227 5.45231 1.36684 5.41436 1.22623C5.3663 1.04814 5.37653 0.889691 5.44504 0.750904C5.51356 0.612116 5.61785 0.524093 5.75791 0.48683C5.88974 0.451758 6.03515 0.483397 6.19415 0.581748C6.34238 0.672917 6.51877 0.85204 6.7233 1.11912C6.94872 1.43087 7.17162 1.73325 7.39198 2.02625C7.60981 2.30988 7.83144 2.60758 8.05686 2.91933L7.89989 3.17207Z" fill="#368508"/>
<g filter="url(#filter0_i_29_453)">
<path d="M8.41736 6.9665C8.41736 8.45492 7.20213 9.66152 5.70306 9.66152C4.204 9.66152 2.98877 8.45492 2.98877 6.9665C2.98877 5.47809 4.204 4.27148 5.70306 4.27148C7.20213 4.27148 8.41736 5.47809 8.41736 6.9665Z" fill="#E0ABE1"/>
</g>
<g filter="url(#filter1_i_29_453)">
<path d="M8.41736 15.9498C8.41736 17.4382 7.20213 18.6448 5.70306 18.6448C4.204 18.6448 2.98877 17.4382 2.98877 15.9498C2.98877 14.4614 4.204 13.2548 5.70306 13.2548C7.20213 13.2548 8.41736 14.4614 8.41736 15.9498Z" fill="#E0ABE1"/>
</g>
<g filter="url(#filter2_i_29_453)">
<path d="M5.70349 11.4582C5.70349 12.9466 4.48826 14.1532 2.9892 14.1532C1.49013 14.1532 0.274902 12.9466 0.274902 11.4582C0.274902 9.96979 1.49013 8.76318 2.9892 8.76318C4.48826 8.76318 5.70349 9.96979 5.70349 11.4582Z" fill="#E0ABE1"/>
</g>
<g filter="url(#filter3_i_29_453)">
<path d="M11.1327 11.4582C11.1327 12.9466 9.91746 14.1532 8.41839 14.1532C6.91933 14.1532 5.7041 12.9466 5.7041 11.4582C5.7041 9.96979 6.91933 8.76318 8.41839 8.76318C9.91746 8.76318 11.1327 9.96979 11.1327 11.4582Z" fill="#E0ABE1"/>
</g>
<g filter="url(#filter4_i_29_453)">
<path d="M11.1327 20.4416C11.1327 21.93 9.91746 23.1366 8.41839 23.1366C6.91933 23.1366 5.7041 21.93 5.7041 20.4416C5.7041 18.9532 6.91933 17.7466 8.41839 17.7466C9.91746 17.7466 11.1327 18.9532 11.1327 20.4416Z" fill="#E0ABE1"/>
</g>
<g filter="url(#filter5_i_29_453)">
<path d="M13.8466 6.9665C13.8466 8.45492 12.6313 9.66152 11.1323 9.66152C9.6332 9.66152 8.41797 8.45492 8.41797 6.9665C8.41797 5.47809 9.6332 4.27148 11.1323 4.27148C12.6313 4.27148 13.8466 5.47809 13.8466 6.9665Z" fill="#E0ABE1"/>
</g>
<g filter="url(#filter6_i_29_453)">
<path d="M13.8466 15.9498C13.8466 17.4382 12.6313 18.6448 11.1323 18.6448C9.6332 18.6448 8.41797 17.4382 8.41797 15.9498C8.41797 14.4614 9.6332 13.2548 11.1323 13.2548C12.6313 13.2548 13.8466 14.4614 13.8466 15.9498Z" fill="#E0ABE1"/>
</g>
<g filter="url(#filter7_i_29_453)">
<path d="M16.5609 11.4582C16.5609 12.9466 15.3457 14.1532 13.8466 14.1532C12.3476 14.1532 11.1323 12.9466 11.1323 11.4582C11.1323 9.96979 12.3476 8.76318 13.8466 8.76318C15.3457 8.76318 16.5609 9.96979 16.5609 11.4582Z" fill="#E0ABE1"/>
</g>
<defs>
<filter id="filter0_i_29_453" x="2.98877" y="4.27148" width="8.42871" height="8.39001" filterUnits="userSpaceOnUse" color-interpolation-filters="sRGB">
<feFlood flood-opacity="0" result="BackgroundImageFix"/>
<feBlend mode="normal" in="SourceGraphic" in2="BackgroundImageFix" result="shape"/>
<feColorMatrix in="SourceAlpha" type="matrix" values="0 0 0 0 0 0 0 0 0 0 0 0 0 0 0 0 0 0 127 0" result="hardAlpha"/>
<feOffset dx="3" dy="3"/>
<feGaussianBlur stdDeviation="2.5"/>
<feComposite in2="hardAlpha" operator="arithmetic" k2="-1" k3="1"/>
<feColorMatrix type="matrix" values="0 0 0 0 0.580392 0 0 0 0 0.262745 0 0 0 0 0.588235 0 0 0 0.7 0"/>
<feBlend mode="normal" in2="shape" result="effect1_innerShadow_29_453"/>
</filter>
<filter id="filter1_i_29_453" x="2.98877" y="13.2548" width="8.42871" height="8.39001" filterUnits="userSpaceOnUse" color-interpolation-filters="sRGB">
<feFlood flood-opacity="0" result="BackgroundImageFix"/>
<feBlend mode="normal" in="SourceGraphic" in2="BackgroundImageFix" result="shape"/>
<feColorMatrix in="SourceAlpha" type="matrix" values="0 0 0 0 0 0 0 0 0 0 0 0 0 0 0 0 0 0 127 0" result="hardAlpha"/>
<feOffset dx="3" dy="3"/>
<feGaussianBlur stdDeviation="2.5"/>
<feComposite in2="hardAlpha" operator="arithmetic" k2="-1" k3="1"/>
<feColorMatrix type="matrix" values="0 0 0 0 0.580392 0 0 0 0 0.262745 0 0 0 0 0.588235 0 0 0 0.7 0"/>
<feBlend mode="normal" in2="shape" result="effect1_innerShadow_29_453"/>
</filter>
<filter id="filter2_i_29_453" x="0.274902" y="8.76318" width="8.42871" height="8.39001" filterUnits="userSpaceOnUse" color-interpolation-filters="sRGB">
<feFlood flood-opacity="0" result="BackgroundImageFix"/>
<feBlend mode="normal" in="SourceGraphic" in2="BackgroundImageFix" result="shape"/>
<feColorMatrix in="SourceAlpha" type="matrix" values="0 0 0 0 0 0 0 0 0 0 0 0 0 0 0 0 0 0 127 0" result="hardAlpha"/>
<feOffset dx="3" dy="3"/>
<feGaussianBlur stdDeviation="2.5"/>
<feComposite in2="hardAlpha" operator="arithmetic" k2="-1" k3="1"/>
<feColorMatrix type="matrix" values="0 0 0 0 0.580392 0 0 0 0 0.262745 0 0 0 0 0.588235 0 0 0 0.7 0"/>
<feBlend mode="normal" in2="shape" result="effect1_innerShadow_29_453"/>
</filter>
<filter id="filter3_i_29_453" x="5.7041" y="8.76318" width="8.42871" height="8.39001" filterUnits="userSpaceOnUse" color-interpolation-filters="sRGB">
<feFlood flood-opacity="0" result="BackgroundImageFix"/>
<feBlend mode="normal" in="SourceGraphic" in2="BackgroundImageFix" result="shape"/>
<feColorMatrix in="SourceAlpha" type="matrix" values="0 0 0 0 0 0 0 0 0 0 0 0 0 0 0 0 0 0 127 0" result="hardAlpha"/>
<feOffset dx="3" dy="3"/>
<feGaussianBlur stdDeviation="2.5"/>
<feComposite in2="hardAlpha" operator="arithmetic" k2="-1" k3="1"/>
<feColorMatrix type="matrix" values="0 0 0 0 0.580392 0 0 0 0 0.262745 0 0 0 0 0.588235 0 0 0 0.7 0"/>
<feBlend mode="normal" in2="shape" result="effect1_innerShadow_29_453"/>
</filter>
<filter id="filter4_i_29_453" x="5.7041" y="17.7466" width="8.42871" height="8.39001" filterUnits="userSpaceOnUse" color-interpolation-filters="sRGB">
<feFlood flood-opacity="0" result="BackgroundImageFix"/>
<feBlend mode="normal" in="SourceGraphic" in2="BackgroundImageFix" result="shape"/>
<feColorMatrix in="SourceAlpha" type="matrix" values="0 0 0 0 0 0 0 0 0 0 0 0 0 0 0 0 0 0 127 0" result="hardAlpha"/>
<feOffset dx="3" dy="3"/>
<feGaussianBlur stdDeviation="2.5"/>
<feComposite in2="hardAlpha" operator="arithmetic" k2="-1" k3="1"/>
<feColorMatrix type="matrix" values="0 0 0 0 0.580392 0 0 0 0 0.262745 0 0 0 0 0.588235 0 0 0 0.7 0"/>
<feBlend mode="normal" in2="shape" result="effect1_innerShadow_29_453"/>
</filter>
<filter id="filter5_i_29_453" x="8.41797" y="4.27148" width="8.42871" height="8.39001" filterUnits="userSpaceOnUse" color-interpolation-filters="sRGB">
<feFlood flood-opacity="0" result="BackgroundImageFix"/>
<feBlend mode="normal" in="SourceGraphic" in2="BackgroundImageFix" result="shape"/>
<feColorMatrix in="SourceAlpha" type="matrix" values="0 0 0 0 0 0 0 0 0 0 0 0 0 0 0 0 0 0 127 0" result="hardAlpha"/>
<feOffset dx="3" dy="3"/>
<feGaussianBlur stdDeviation="2.5"/>
<feComposite in2="hardAlpha" operator="arithmetic" k2="-1" k3="1"/>
<feColorMatrix type="matrix" values="0 0 0 0 0.580392 0 0 0 0 0.262745 0 0 0 0 0.588235 0 0 0 0.7 0"/>
<feBlend mode="normal" in2="shape" result="effect1_innerShadow_29_453"/>
</filter>
<filter id="filter6_i_29_453" x="8.41797" y="13.2548" width="8.42871" height="8.39001" filterUnits="userSpaceOnUse" color-interpolation-filters="sRGB">
<feFlood flood-opacity="0" result="BackgroundImageFix"/>
<feBlend mode="normal" in="SourceGraphic" in2="BackgroundImageFix" result="shape"/>
<feColorMatrix in="SourceAlpha" type="matrix" values="0 0 0 0 0 0 0 0 0 0 0 0 0 0 0 0 0 0 127 0" result="hardAlpha"/>
<feOffset dx="3" dy="3"/>
<feGaussianBlur stdDeviation="2.5"/>
<feComposite in2="hardAlpha" operator="arithmetic" k2="-1" k3="1"/>
<feColorMatrix type="matrix" values="0 0 0 0 0.580392 0 0 0 0 0.262745 0 0 0 0 0.588235 0 0 0 0.7 0"/>
<feBlend mode="normal" in2="shape" result="effect1_innerShadow_29_453"/>
</filter>
<filter id="filter7_i_29_453" x="11.1323" y="8.76318" width="8.42871" height="8.39001" filterUnits="userSpaceOnUse" color-interpolation-filters="sRGB">
<feFlood flood-opacity="0" result="BackgroundImageFix"/>
<feBlend mode="normal" in="SourceGraphic" in2="BackgroundImageFix" result="shape"/>
<feColorMatrix in="SourceAlpha" type="matrix" values="0 0 0 0 0 0 0 0 0 0 0 0 0 0 0 0 0 0 127 0" result="hardAlpha"/>
<feOffset dx="3" dy="3"/>
<feGaussianBlur stdDeviation="2.5"/>
<feComposite in2="hardAlpha" operator="arithmetic" k2="-1" k3="1"/>
<feColorMatrix type="matrix" values="0 0 0 0 0.580392 0 0 0 0 0.262745 0 0 0 0 0.588235 0 0 0 0.7 0"/>
<feBlend mode="normal" in2="shape" result="effect1_innerShadow_29_453"/>
</filter>
</defs>
</svg>
