<svg width="141" height="62" viewBox="0 0 141 62" fill="none" xmlns="http://www.w3.org/2000/svg">
<path d="M110.385 17.4C109.368 17.4 108.393 17.2167 107.46 16.85C106.527 16.4833 105.685 15.9417 104.935 15.225C104.202 14.4917 103.618 13.5833 103.185 12.5C102.752 11.4167 102.535 10.15 102.535 8.7C102.535 7.28333 102.752 6.03333 103.185 4.95C103.618 3.86667 104.202 2.95833 104.935 2.225C105.685 1.49167 106.527 0.941668 107.46 0.575001C108.41 0.191667 109.385 0 110.385 0C111.385 0 112.352 0.183334 113.285 0.550001C114.235 0.916667 115.077 1.46667 115.81 2.2C116.543 2.91667 117.127 3.81667 117.56 4.9C117.993 5.98333 118.21 7.25 118.21 8.7C118.21 10.1167 117.993 11.3667 117.56 12.45C117.127 13.5333 116.543 14.4417 115.81 15.175C115.077 15.9083 114.243 16.4667 113.31 16.85C112.377 17.2167 111.402 17.4 110.385 17.4ZM110.385 16.65C111.335 16.65 112.102 16.4083 112.685 15.925C113.268 15.425 113.693 14.5917 113.96 13.425C114.227 12.2583 114.36 10.6833 114.36 8.7C114.36 6.71667 114.227 5.15 113.96 4C113.693 2.83333 113.268 2.00833 112.685 1.525C112.102 1.025 111.335 0.775 110.385 0.775C109.452 0.775 108.685 1.025 108.085 1.525C107.502 2.00833 107.077 2.83333 106.81 4C106.543 5.15 106.41 6.71667 106.41 8.7C106.41 10.6833 106.543 12.2583 106.81 13.425C107.077 14.5917 107.502 15.425 108.085 15.925C108.685 16.4083 109.452 16.65 110.385 16.65Z" fill="white"/>
<path d="M20.3849 44.4C19.3682 44.4 18.3932 44.2167 17.4599 43.85C16.5266 43.4833 15.6849 42.9417 14.9349 42.225C14.2016 41.4917 13.6182 40.5833 13.1849 39.5C12.7516 38.4167 12.5349 37.15 12.5349 35.7C12.5349 34.2833 12.7516 33.0333 13.1849 31.95C13.6182 30.8667 14.2016 29.9583 14.9349 29.225C15.6849 28.4917 16.5266 27.9417 17.4599 27.575C18.4099 27.1917 19.3849 27 20.3849 27C21.3849 27 22.3516 27.1833 23.2849 27.55C24.2349 27.9167 25.0766 28.4667 25.8099 29.2C26.5432 29.9167 27.1266 30.8167 27.5599 31.9C27.9932 32.9833 28.2099 34.25 28.2099 35.7C28.2099 37.1167 27.9932 38.3667 27.5599 39.45C27.1266 40.5333 26.5432 41.4417 25.8099 42.175C25.0766 42.9083 24.2432 43.4667 23.3099 43.85C22.3766 44.2167 21.4016 44.4 20.3849 44.4ZM20.3849 43.65C21.3349 43.65 22.1016 43.4083 22.6849 42.925C23.2682 42.425 23.6932 41.5917 23.9599 40.425C24.2266 39.2583 24.3599 37.6833 24.3599 35.7C24.3599 33.7167 24.2266 32.15 23.9599 31C23.6932 29.8333 23.2682 29.0083 22.6849 28.525C22.1016 28.025 21.3349 27.775 20.3849 27.775C19.4516 27.775 18.6849 28.025 18.0849 28.525C17.5016 29.0083 17.0766 29.8333 16.8099 31C16.5432 32.15 16.4099 33.7167 16.4099 35.7C16.4099 37.6833 16.5432 39.2583 16.8099 40.425C17.0766 41.5917 17.5016 42.425 18.0849 42.925C18.6849 43.4083 19.4516 43.65 20.3849 43.65Z" fill="white"/>
<path d="M132.385 44.4C131.368 44.4 130.393 44.2167 129.46 43.85C128.527 43.4833 127.685 42.9417 126.935 42.225C126.202 41.4917 125.618 40.5833 125.185 39.5C124.752 38.4167 124.535 37.15 124.535 35.7C124.535 34.2833 124.752 33.0333 125.185 31.95C125.618 30.8667 126.202 29.9583 126.935 29.225C127.685 28.4917 128.527 27.9417 129.46 27.575C130.41 27.1917 131.385 27 132.385 27C133.385 27 134.352 27.1833 135.285 27.55C136.235 27.9167 137.077 28.4667 137.81 29.2C138.543 29.9167 139.127 30.8167 139.56 31.9C139.993 32.9833 140.21 34.25 140.21 35.7C140.21 37.1167 139.993 38.3667 139.56 39.45C139.127 40.5333 138.543 41.4417 137.81 42.175C137.077 42.9083 136.243 43.4667 135.31 43.85C134.377 44.2167 133.402 44.4 132.385 44.4ZM132.385 43.65C133.335 43.65 134.102 43.4083 134.685 42.925C135.268 42.425 135.693 41.5917 135.96 40.425C136.227 39.2583 136.36 37.6833 136.36 35.7C136.36 33.7167 136.227 32.15 135.96 31C135.693 29.8333 135.268 29.0083 134.685 28.525C134.102 28.025 133.335 27.775 132.385 27.775C131.452 27.775 130.685 28.025 130.085 28.525C129.502 29.0083 129.077 29.8333 128.81 31C128.543 32.15 128.41 33.7167 128.41 35.7C128.41 37.6833 128.543 39.2583 128.81 40.425C129.077 41.5917 129.502 42.425 130.085 42.925C130.685 43.4083 131.452 43.65 132.385 43.65Z" fill="white"/>
<path d="M118.194 44.4C116.577 44.4 115.119 44.0667 113.819 43.4C112.519 42.7333 111.485 41.75 110.719 40.45C109.969 39.15 109.594 37.5667 109.594 35.7C109.594 34.3 109.819 33.0583 110.269 31.975C110.735 30.8917 111.369 29.9833 112.169 29.25C112.985 28.5 113.919 27.9417 114.969 27.575C116.019 27.1917 117.135 27 118.319 27C119.235 27 120.094 27.1083 120.894 27.325C121.694 27.525 122.46 27.825 123.194 28.225L123.294 31.5H122.619L121.569 29.525C121.402 29.1917 121.219 28.8917 121.019 28.625C120.835 28.3583 120.594 28.1667 120.294 28.05C119.877 27.85 119.385 27.75 118.819 27.75C117.835 27.75 116.935 28 116.119 28.5C115.319 29 114.677 29.8333 114.194 31C113.71 32.15 113.469 33.725 113.469 35.725C113.469 37.7083 113.694 39.2833 114.144 40.45C114.61 41.6167 115.235 42.45 116.019 42.95C116.802 43.4333 117.685 43.675 118.669 43.675C119.119 43.675 119.485 43.6417 119.769 43.575C120.052 43.5083 120.335 43.4167 120.619 43.3C120.952 43.1667 121.21 42.975 121.394 42.725C121.577 42.4583 121.735 42.1583 121.869 41.825L122.819 39.55H123.494L123.394 43.15C122.677 43.55 121.885 43.8583 121.019 44.075C120.152 44.2917 119.21 44.4 118.194 44.4Z" fill="white"/>
<path d="M102.686 43.975V43.45L103.186 43.3C103.519 43.1833 103.736 43.0333 103.836 42.85C103.952 42.65 104.011 42.375 104.011 42.025V29.4C104.011 29.05 103.952 28.7833 103.836 28.6C103.736 28.4 103.519 28.2417 103.186 28.125L102.686 27.975V27.45H108.936V27.975L108.436 28.125C108.119 28.2417 107.902 28.4 107.786 28.6C107.669 28.7833 107.611 29.05 107.611 29.4V42.025C107.611 42.375 107.669 42.65 107.786 42.85C107.902 43.0333 108.119 43.1833 108.436 43.3L108.936 43.45V43.975H102.686Z" fill="white"/>
<path d="M87.0605 43.975V43.45L87.5855 43.3C87.9189 43.2 88.1272 43.0583 88.2105 42.875C88.3105 42.675 88.3605 42.4 88.3605 42.05C88.3772 41.0833 88.3856 40.1167 88.3856 39.15C88.3856 38.1833 88.3856 37.2083 88.3856 36.225V35.2C88.3856 34.2333 88.3856 33.2667 88.3856 32.3C88.3856 31.3333 88.3772 30.3667 88.3605 29.4C88.3605 29.05 88.3189 28.7833 88.2355 28.6C88.1522 28.4 87.9439 28.25 87.6105 28.15L87.0605 27.975V27.45H94.0605C96.0105 27.45 97.5105 27.825 98.5605 28.575C99.6272 29.3083 100.161 30.3417 100.161 31.675C100.161 32.4083 99.8689 33.15 99.2856 33.9C98.7189 34.65 97.8439 35.225 96.6606 35.625L100.061 42.25C100.344 42.8 100.786 43.175 101.386 43.375L101.861 43.475V43.975H97.4355L93.7105 36.175H91.9106C91.9106 37.3583 91.9106 38.425 91.9106 39.375C91.9106 40.325 91.9189 41.2167 91.9355 42.05C91.9355 42.3833 91.9855 42.65 92.0855 42.85C92.2022 43.05 92.4189 43.1917 92.7355 43.275L93.3355 43.45V43.975H87.0605ZM91.9106 35.45H93.2606C94.4439 35.45 95.3105 35.15 95.8605 34.55C96.4105 33.95 96.6855 33.0333 96.6855 31.8C96.6855 30.5667 96.4189 29.6583 95.8856 29.075C95.3689 28.475 94.5272 28.175 93.3605 28.175H91.9355C91.9355 28.825 91.9272 29.4917 91.9106 30.175C91.9106 30.8417 91.9106 31.6 91.9106 32.45C91.9106 33.2833 91.9106 34.2833 91.9106 35.45Z" fill="white"/>
<path d="M57.6416 43.975V43.45L58.1416 43.3C58.4916 43.1833 58.7166 43.0333 58.8166 42.85C58.9166 42.65 58.9666 42.375 58.9666 42.025V29.375C58.9666 29.0417 58.9166 28.7833 58.8166 28.6C58.7166 28.4 58.4999 28.2417 58.1666 28.125L57.6416 27.975V27.45H63.8416V27.975L63.3666 28.125C63.0499 28.2417 62.8333 28.4 62.7166 28.6C62.6166 28.8 62.5666 29.075 62.5666 29.425V43.225H66.2416C66.8083 43.225 67.2333 43.0833 67.5166 42.8C67.7999 42.5167 68.0666 42.1083 68.3166 41.575L69.2416 39.5H69.9416L69.6916 43.975H57.6416Z" fill="white"/>
<path d="M51.1281 44.4C49.5114 44.4 48.0531 44.0667 46.7531 43.4C45.4531 42.7333 44.4197 41.75 43.6531 40.45C42.9031 39.15 42.5281 37.5667 42.5281 35.7C42.5281 34.3 42.7531 33.0583 43.2031 31.975C43.6697 30.8917 44.3031 29.9833 45.1031 29.25C45.9197 28.5 46.8531 27.9417 47.9031 27.575C48.9531 27.1917 50.0697 27 51.2531 27C52.1697 27 53.0281 27.1083 53.8281 27.325C54.6281 27.525 55.3947 27.825 56.1281 28.225L56.2281 31.5H55.5531L54.5031 29.525C54.3364 29.1917 54.1531 28.8917 53.9531 28.625C53.7697 28.3583 53.5281 28.1667 53.2281 28.05C52.8114 27.85 52.3197 27.75 51.7531 27.75C50.7697 27.75 49.8697 28 49.0531 28.5C48.2531 29 47.6114 29.8333 47.1281 31C46.6447 32.15 46.4031 33.725 46.4031 35.725C46.4031 37.7083 46.6281 39.2833 47.0781 40.45C47.5447 41.6167 48.1697 42.45 48.9531 42.95C49.7364 43.4333 50.6197 43.675 51.6031 43.675C52.0531 43.675 52.4197 43.6417 52.7031 43.575C52.9864 43.5083 53.2697 43.4167 53.5531 43.3C53.8864 43.1667 54.1447 42.975 54.3281 42.725C54.5114 42.4583 54.6697 42.1583 54.8031 41.825L55.7531 39.55H56.4281L56.3281 43.15C55.6114 43.55 54.8197 43.8583 53.9531 44.075C53.0864 44.2917 52.1447 44.4 51.1281 44.4Z" fill="white"/>
<path d="M29.4434 43.975V43.45L29.9434 43.3C30.2934 43.1833 30.5184 43.0333 30.6184 42.85C30.7184 42.65 30.7684 42.375 30.7684 42.025V29.375C30.7684 29.0417 30.7184 28.7833 30.6184 28.6C30.5184 28.4 30.3017 28.2417 29.9684 28.125L29.4434 27.975V27.45H35.6434V27.975L35.1684 28.125C34.8517 28.2417 34.635 28.4 34.5184 28.6C34.4184 28.8 34.3684 29.075 34.3684 29.425V43.225H38.0434C38.61 43.225 39.035 43.0833 39.3184 42.8C39.6017 42.5167 39.8684 42.1083 40.1184 41.575L41.0434 39.5H41.7434L41.4934 43.975H29.4434Z" fill="white"/>
<path d="M0 43.975V43.45L0.475 43.325C0.808333 43.225 1.025 43.075 1.125 42.875C1.225 42.675 1.28333 42.4 1.3 42.05C1.31667 41.1 1.325 40.1417 1.325 39.175C1.325 38.1917 1.325 37.2083 1.325 36.225V35.2C1.325 34.2333 1.325 33.2667 1.325 32.3C1.325 31.3333 1.31667 30.3667 1.3 29.4C1.28333 29.05 1.23333 28.7833 1.15 28.6C1.06667 28.4 0.866667 28.25 0.55 28.15L0 27.975V27.45H12.025L12.2 31.675H11.525L10.225 29.2C10.0583 28.8833 9.875 28.6417 9.675 28.475C9.475 28.2917 9.18333 28.2 8.8 28.2H4.95C4.93333 29.3167 4.91667 30.4667 4.9 31.65C4.9 32.8167 4.9 33.9833 4.9 35.15H7.3C7.68333 35.15 7.96667 35.0667 8.15 34.9C8.33333 34.7167 8.50833 34.4667 8.675 34.15L9.175 33.225H9.725V37.8H9.175L8.675 36.9C8.49167 36.5667 8.30833 36.3167 8.125 36.15C7.95833 35.9667 7.68333 35.875 7.3 35.875H4.9C4.9 36.975 4.9 38.0333 4.9 39.05C4.9 40.05 4.90833 41.0333 4.925 42C4.925 42.6833 5.23333 43.1083 5.85 43.275L6.6 43.45V43.975H0Z" fill="white"/>
<path d="M85.376 16.975V16.45L85.851 16.3C86.1843 16.1833 86.4093 16.0333 86.526 15.85C86.6426 15.65 86.701 15.3833 86.701 15.05V2.4C86.701 2.06666 86.6426 1.8 86.526 1.6C86.426 1.4 86.2093 1.24166 85.876 1.125L85.376 0.974996V0.449997H91.551V0.974996L91.126 1.1C90.8093 1.21666 90.5926 1.375 90.476 1.575C90.3593 1.75833 90.301 2.01666 90.301 2.35V8.1H96.526V2.35C96.526 2.01666 96.4676 1.75833 96.351 1.575C96.2343 1.375 96.0093 1.21666 95.676 1.1L95.276 0.974996V0.449997H101.451V0.974996L100.976 1.125C100.659 1.24166 100.434 1.4 100.301 1.6C100.184 1.78333 100.126 2.04166 100.126 2.375V15.05C100.126 15.3833 100.184 15.65 100.301 15.85C100.434 16.0333 100.659 16.1833 100.976 16.3L101.451 16.45V16.975H95.276V16.45L95.676 16.325C96.0093 16.2083 96.2343 16.0583 96.351 15.875C96.4676 15.675 96.526 15.4083 96.526 15.075V8.85H90.301V15.075C90.301 15.4083 90.3593 15.675 90.476 15.875C90.6093 16.0583 90.8343 16.2083 91.151 16.325L91.551 16.45V16.975H85.376Z" fill="white"/>
<path d="M78.8624 17.4C77.2458 17.4 75.7874 17.0667 74.4874 16.4C73.1874 15.7333 72.1541 14.75 71.3875 13.45C70.6375 12.15 70.2625 10.5667 70.2625 8.7C70.2625 7.3 70.4874 6.05833 70.9374 4.975C71.4041 3.89167 72.0374 2.98333 72.8374 2.25C73.6541 1.5 74.5875 0.941667 75.6375 0.575C76.6875 0.191666 77.8041 0 78.9874 0C79.9041 0 80.7624 0.108333 81.5624 0.325C82.3624 0.525 83.1291 0.824999 83.8624 1.225L83.9624 4.5H83.2875L82.2374 2.525C82.0708 2.19167 81.8874 1.89167 81.6874 1.625C81.5041 1.35833 81.2624 1.16667 80.9624 1.05C80.5458 0.849999 80.0541 0.749999 79.4874 0.749999C78.5041 0.749999 77.6041 0.999999 76.7875 1.5C75.9875 2 75.3458 2.83333 74.8624 4C74.3791 5.15 74.1375 6.725 74.1375 8.725C74.1375 10.7083 74.3624 12.2833 74.8124 13.45C75.2791 14.6167 75.9041 15.45 76.6874 15.95C77.4708 16.4333 78.3541 16.675 79.3374 16.675C79.7874 16.675 80.1541 16.6417 80.4375 16.575C80.7208 16.5083 81.0041 16.4167 81.2875 16.3C81.6208 16.1667 81.8791 15.975 82.0624 15.725C82.2458 15.4583 82.4041 15.1583 82.5375 14.825L83.4874 12.55H84.1625L84.0624 16.15C83.3458 16.55 82.5541 16.8583 81.6874 17.075C80.8208 17.2917 79.8791 17.4 78.8624 17.4Z" fill="white"/>
<path d="M54.6945 16.975V16.45L55.4195 16.25C55.7362 16.1667 55.9528 16.0083 56.0695 15.775C56.2028 15.5417 56.2695 15.2583 56.2695 14.925V2.825C56.1195 2.50833 55.9862 2.275 55.8695 2.125C55.7695 1.95833 55.6612 1.81666 55.5445 1.7C55.4278 1.58333 55.2695 1.45 55.0695 1.3L54.6195 0.974996V0.449997H58.8945L67.1945 11.8V2.525C67.1945 2.19166 67.1362 1.9 67.0195 1.65C66.9195 1.4 66.7028 1.23333 66.3695 1.15L65.6195 0.974996V0.449997H69.3445V0.974996L68.7195 1.15C68.4028 1.25 68.2028 1.425 68.1195 1.675C68.0528 1.90833 68.0195 2.19166 68.0195 2.525V17.075H66.6195L57.0945 3.975V14.9C57.0945 15.25 57.1445 15.5417 57.2445 15.775C57.3445 16.0083 57.5528 16.1667 57.8695 16.25L58.5445 16.45V16.975H54.6945Z" fill="white"/>
<path d="M37.8812 16.975V16.45L38.5562 16.25C38.9062 16.15 39.1729 16 39.3562 15.8C39.5562 15.6 39.7146 15.325 39.8312 14.975L44.8812 0.375H46.9562L51.9812 15.075C52.1146 15.4417 52.2646 15.725 52.4312 15.925C52.5979 16.1083 52.8646 16.2583 53.2312 16.375L53.6062 16.475V16.975H47.2562V16.475L47.6812 16.35C48.0479 16.2333 48.2646 16.05 48.3312 15.8C48.4146 15.55 48.3979 15.2417 48.2812 14.875L47.2312 11.65H41.7062L40.6312 14.825C40.5146 15.1917 40.4812 15.4917 40.5312 15.725C40.5812 15.9583 40.7896 16.1417 41.1562 16.275L41.7062 16.45V16.975H37.8812ZM41.9562 10.925H47.0062L44.5562 3.4L41.9562 10.925Z" fill="white"/>
<path d="M22.4121 16.975V16.45L22.9371 16.3C23.2704 16.2 23.4788 16.0583 23.5621 15.875C23.6621 15.675 23.7121 15.4 23.7121 15.05C23.7288 14.0833 23.7371 13.1167 23.7371 12.15C23.7371 11.1833 23.7371 10.2083 23.7371 9.225V8.2C23.7371 7.23333 23.7371 6.26666 23.7371 5.3C23.7371 4.33333 23.7288 3.36666 23.7121 2.4C23.7121 2.05 23.6704 1.78333 23.5871 1.6C23.5038 1.4 23.2954 1.25 22.9621 1.15L22.4121 0.974996V0.449997H29.4121C31.3621 0.449997 32.8621 0.824996 33.9121 1.575C34.9788 2.30833 35.5121 3.34166 35.5121 4.675C35.5121 5.40833 35.2204 6.15 34.6371 6.9C34.0704 7.65 33.1954 8.225 32.0121 8.625L35.4121 15.25C35.6954 15.8 36.1371 16.175 36.7371 16.375L37.2121 16.475V16.975H32.7871L29.0621 9.175H27.2621C27.2621 10.3583 27.2621 11.425 27.2621 12.375C27.2621 13.325 27.2704 14.2167 27.2871 15.05C27.2871 15.3833 27.3371 15.65 27.4371 15.85C27.5538 16.05 27.7704 16.1917 28.0871 16.275L28.6871 16.45V16.975H22.4121ZM27.2621 8.45H28.6121C29.7954 8.45 30.6621 8.15 31.2121 7.55C31.7621 6.95 32.0371 6.03333 32.0371 4.8C32.0371 3.56666 31.7704 2.65833 31.2371 2.075C30.7204 1.475 29.8788 1.175 28.7121 1.175H27.2871C27.2871 1.825 27.2788 2.49166 27.2621 3.175C27.2621 3.84166 27.2621 4.6 27.2621 5.45C27.2621 6.28333 27.2621 7.28333 27.2621 8.45Z" fill="white"/>
<path d="M117.289 61.065C116.819 61.065 116.379 60.94 115.969 60.69C115.569 60.43 115.244 60.095 114.994 59.685C114.754 59.265 114.634 58.815 114.634 58.335V56.505C114.634 56.025 114.754 55.58 114.994 55.17C115.234 54.76 115.554 54.43 115.954 54.18C116.364 53.93 116.809 53.805 117.289 53.805C117.769 53.805 118.209 53.93 118.609 54.18C119.019 54.42 119.344 54.745 119.584 55.155C119.834 55.555 119.959 56.005 119.959 56.505V58.335C119.959 58.805 119.834 59.25 119.584 59.67C119.344 60.09 119.019 60.43 118.609 60.69C118.209 60.94 117.769 61.065 117.289 61.065ZM117.289 60.54C117.689 60.54 118.049 60.435 118.369 60.225C118.689 60.015 118.944 59.74 119.134 59.4C119.334 59.06 119.434 58.705 119.434 58.335V56.505C119.434 56.135 119.339 55.785 119.149 55.455C118.959 55.125 118.699 54.855 118.369 54.645C118.049 54.435 117.689 54.33 117.289 54.33C116.889 54.33 116.529 54.435 116.209 54.645C115.889 54.855 115.634 55.125 115.444 55.455C115.254 55.785 115.159 56.135 115.159 56.505V58.335C115.159 58.705 115.254 59.06 115.444 59.4C115.634 59.74 115.889 60.015 116.209 60.225C116.539 60.435 116.899 60.54 117.289 60.54Z" fill="white"/>
<path d="M112.452 60.975C112.382 60.975 112.322 60.95 112.272 60.9C112.222 60.84 112.197 60.775 112.197 60.705V49.71C112.197 49.63 112.222 49.57 112.272 49.53C112.322 49.48 112.382 49.455 112.452 49.455C112.532 49.455 112.597 49.48 112.647 49.53C112.697 49.57 112.722 49.63 112.722 49.71V60.705C112.722 60.775 112.697 60.84 112.647 60.9C112.597 60.95 112.532 60.975 112.452 60.975Z" fill="white"/>
<path d="M108.157 61.065C107.567 61.065 107.042 60.95 106.582 60.72C106.132 60.49 105.777 60.175 105.517 59.775C105.257 59.365 105.127 58.885 105.127 58.335V56.46C105.127 55.98 105.247 55.54 105.487 55.14C105.737 54.73 106.062 54.405 106.462 54.165C106.872 53.925 107.317 53.805 107.797 53.805C108.267 53.805 108.702 53.925 109.102 54.165C109.512 54.395 109.837 54.715 110.077 55.125C110.327 55.525 110.452 55.985 110.452 56.505C110.452 56.865 110.392 57.125 110.272 57.285C110.152 57.445 109.997 57.545 109.807 57.585C109.627 57.615 109.427 57.63 109.207 57.63H105.652V58.335C105.652 59.015 105.892 59.555 106.372 59.955C106.852 60.345 107.457 60.54 108.187 60.54C108.607 60.54 108.927 60.49 109.147 60.39C109.367 60.28 109.532 60.175 109.642 60.075C109.762 59.975 109.867 59.925 109.957 59.925C110.007 59.925 110.052 59.94 110.092 59.97C110.132 60 110.162 60.035 110.182 60.075C110.212 60.115 110.227 60.155 110.227 60.195C110.227 60.285 110.142 60.4 109.972 60.54C109.812 60.68 109.577 60.805 109.267 60.915C108.957 61.015 108.587 61.065 108.157 61.065ZM105.652 57.105H109.027C109.397 57.105 109.637 57.07 109.747 57C109.867 56.93 109.927 56.78 109.927 56.55C109.927 56.19 109.837 55.84 109.657 55.5C109.487 55.16 109.242 54.88 108.922 54.66C108.602 54.44 108.227 54.33 107.797 54.33C107.397 54.33 107.032 54.43 106.702 54.63C106.382 54.83 106.127 55.09 105.937 55.41C105.747 55.73 105.652 56.08 105.652 56.46V57.105Z" fill="white"/>
<path d="M103.616 60.975C102.906 60.975 102.361 60.81 101.981 60.48C101.611 60.15 101.426 59.62 101.426 58.89V50.685C101.426 50.605 101.451 50.545 101.501 50.505C101.561 50.455 101.621 50.43 101.681 50.43C101.751 50.43 101.811 50.455 101.861 50.505C101.921 50.545 101.951 50.605 101.951 50.685V53.895H103.976C104.046 53.895 104.106 53.92 104.156 53.97C104.206 54.02 104.231 54.085 104.231 54.165C104.231 54.235 104.206 54.295 104.156 54.345C104.106 54.395 104.046 54.42 103.976 54.42H101.951V58.89C101.951 59.46 102.076 59.865 102.326 60.105C102.576 60.335 103.006 60.45 103.616 60.45H103.961C104.031 60.45 104.091 60.475 104.141 60.525C104.191 60.565 104.216 60.625 104.216 60.705C104.216 60.775 104.191 60.84 104.141 60.9C104.091 60.95 104.031 60.975 103.961 60.975H103.616Z" fill="white"/>
<path d="M97.6005 61.065C97.1505 61.065 96.7605 61.01 96.4305 60.9C96.1105 60.78 95.8605 60.645 95.6805 60.495C95.5005 60.345 95.4105 60.21 95.4105 60.09C95.4105 60.04 95.4205 60 95.4405 59.97C95.4605 59.93 95.4855 59.9 95.5155 59.88C95.5555 59.85 95.5905 59.835 95.6205 59.835C95.7105 59.835 95.8155 59.895 95.9355 60.015C96.0655 60.125 96.2555 60.24 96.5055 60.36C96.7555 60.48 97.1155 60.54 97.5855 60.54C98.2155 60.54 98.6655 60.42 98.9355 60.18C99.2055 59.93 99.3405 59.635 99.3405 59.295C99.3405 58.905 99.2505 58.605 99.0705 58.395C98.8905 58.175 98.6555 58.01 98.3655 57.9C98.0755 57.78 97.7705 57.675 97.4505 57.585C97.1305 57.495 96.8255 57.39 96.5355 57.27C96.2455 57.14 96.0105 56.96 95.8305 56.73C95.6505 56.49 95.5605 56.165 95.5605 55.755C95.5605 55.455 95.6355 55.155 95.7855 54.855C95.9455 54.555 96.1855 54.305 96.5055 54.105C96.8355 53.905 97.2605 53.805 97.7805 53.805C98.0805 53.805 98.3705 53.84 98.6505 53.91C98.9305 53.97 99.1605 54.05 99.3405 54.15C99.5205 54.24 99.6105 54.335 99.6105 54.435C99.6105 54.465 99.5955 54.505 99.5655 54.555C99.5455 54.605 99.5155 54.65 99.4755 54.69C99.4455 54.72 99.4055 54.735 99.3555 54.735C99.2955 54.735 99.2005 54.7 99.0705 54.63C98.9405 54.56 98.7705 54.495 98.5605 54.435C98.3505 54.365 98.0955 54.33 97.7955 54.33C97.3755 54.33 97.0405 54.41 96.7905 54.57C96.5405 54.72 96.3605 54.905 96.2505 55.125C96.1405 55.335 96.0855 55.54 96.0855 55.74C96.0855 56.07 96.1755 56.325 96.3555 56.505C96.5355 56.685 96.7705 56.825 97.0605 56.925C97.3505 57.025 97.6555 57.12 97.9755 57.21C98.2955 57.3 98.6005 57.42 98.8905 57.57C99.1805 57.71 99.4155 57.915 99.5955 58.185C99.7755 58.445 99.8655 58.805 99.8655 59.265C99.8655 59.815 99.6655 60.255 99.2655 60.585C98.8655 60.905 98.3105 61.065 97.6005 61.065Z" fill="white"/>
<path d="M91.1078 61.065C90.5278 61.065 90.0328 60.905 89.6228 60.585C89.2228 60.255 89.0228 59.755 89.0228 59.085C89.0228 58.555 89.1678 58.15 89.4578 57.87C89.7578 57.58 90.1678 57.38 90.6878 57.27C91.2178 57.16 91.8278 57.105 92.5178 57.105H93.3578V56.685C93.3578 56.305 93.2928 55.935 93.1628 55.575C93.0328 55.215 92.8228 54.92 92.5328 54.69C92.2428 54.45 91.8578 54.33 91.3778 54.33C91.0678 54.33 90.8078 54.365 90.5978 54.435C90.3878 54.495 90.2178 54.56 90.0878 54.63C89.9678 54.7 89.8778 54.735 89.8178 54.735C89.7378 54.735 89.6728 54.7 89.6228 54.63C89.5728 54.55 89.5478 54.485 89.5478 54.435C89.5478 54.335 89.6378 54.24 89.8178 54.15C90.0078 54.05 90.2428 53.97 90.5228 53.91C90.8128 53.84 91.1078 53.805 91.4078 53.805C92.0278 53.805 92.5178 53.945 92.8778 54.225C93.2378 54.495 93.4928 54.85 93.6428 55.29C93.8028 55.72 93.8828 56.185 93.8828 56.685V60.705C93.8828 60.775 93.8578 60.84 93.8078 60.9C93.7678 60.95 93.7078 60.975 93.6278 60.975C93.5578 60.975 93.4928 60.95 93.4328 60.9C93.3828 60.84 93.3578 60.775 93.3578 60.705V59.925C93.1078 60.215 92.7928 60.48 92.4128 60.72C92.0428 60.95 91.6078 61.065 91.1078 61.065ZM91.0928 60.54C91.4728 60.54 91.8328 60.45 92.1728 60.27C92.5228 60.08 92.8078 59.855 93.0278 59.595C93.2478 59.335 93.3578 59.1 93.3578 58.89V57.63H92.5328C92.0228 57.63 91.5378 57.66 91.0778 57.72C90.6278 57.78 90.2578 57.915 89.9678 58.125C89.6878 58.325 89.5478 58.645 89.5478 59.085C89.5478 59.585 89.6978 59.955 89.9978 60.195C90.2978 60.425 90.6628 60.54 91.0928 60.54Z" fill="white"/>
<path d="M84.9753 61.065C84.4453 61.065 83.9553 60.965 83.5053 60.765C83.0553 60.555 82.6953 60.225 82.4253 59.775C82.1653 59.325 82.0353 58.725 82.0353 57.975V53.1C82.0353 52.35 82.1703 51.75 82.4403 51.3C82.7203 50.85 83.0853 50.525 83.5353 50.325C83.9853 50.115 84.4803 50.01 85.0203 50.01C85.6603 50.01 86.1903 50.125 86.6103 50.355C87.0403 50.585 87.3603 50.88 87.5703 51.24C87.7903 51.6 87.9003 51.975 87.9003 52.365C87.9003 52.535 87.8753 52.65 87.8253 52.71C87.7853 52.76 87.7203 52.785 87.6303 52.785C87.5003 52.785 87.4203 52.755 87.3903 52.695C87.3703 52.625 87.3603 52.565 87.3603 52.515C87.3503 52.335 87.3103 52.135 87.2403 51.915C87.1803 51.685 87.0653 51.47 86.8953 51.27C86.7353 51.06 86.5003 50.89 86.1903 50.76C85.8903 50.62 85.4953 50.55 85.0053 50.55C84.2153 50.55 83.6103 50.76 83.1903 51.18C82.7803 51.59 82.5753 52.23 82.5753 53.1V57.975C82.5753 58.855 82.7853 59.5 83.2053 59.91C83.6253 60.32 84.2453 60.525 85.0653 60.525C85.5653 60.525 85.9603 60.46 86.2503 60.33C86.5403 60.2 86.7603 60.035 86.9103 59.835C87.0603 59.635 87.1653 59.42 87.2253 59.19C87.2853 58.96 87.3303 58.75 87.3603 58.56C87.3703 58.49 87.3903 58.43 87.4203 58.38C87.4503 58.32 87.5203 58.29 87.6303 58.29C87.7203 58.29 87.7853 58.32 87.8253 58.38C87.8753 58.44 87.9003 58.555 87.9003 58.725C87.9003 59.105 87.7903 59.475 87.5703 59.835C87.3503 60.195 87.0203 60.49 86.5803 60.72C86.1503 60.95 85.6153 61.065 84.9753 61.065Z" fill="white"/>
<path d="M74.4712 61.065C74.0012 61.065 73.5612 60.94 73.1512 60.69C72.7512 60.43 72.4262 60.095 72.1762 59.685C71.9362 59.265 71.8162 58.815 71.8162 58.335V56.505C71.8162 56.025 71.9362 55.58 72.1762 55.17C72.4162 54.76 72.7362 54.43 73.1362 54.18C73.5462 53.93 73.9912 53.805 74.4712 53.805C74.9512 53.805 75.3912 53.93 75.7912 54.18C76.2012 54.42 76.5262 54.745 76.7662 55.155C77.0162 55.555 77.1412 56.005 77.1412 56.505V58.335C77.1412 58.805 77.0162 59.25 76.7662 59.67C76.5262 60.09 76.2012 60.43 75.7912 60.69C75.3912 60.94 74.9512 61.065 74.4712 61.065ZM74.4712 60.54C74.8712 60.54 75.2312 60.435 75.5512 60.225C75.8712 60.015 76.1262 59.74 76.3162 59.4C76.5162 59.06 76.6162 58.705 76.6162 58.335V56.505C76.6162 56.135 76.5212 55.785 76.3312 55.455C76.1412 55.125 75.8812 54.855 75.5512 54.645C75.2312 54.435 74.8712 54.33 74.4712 54.33C74.0712 54.33 73.7112 54.435 73.3912 54.645C73.0712 54.855 72.8162 55.125 72.6262 55.455C72.4362 55.785 72.3412 56.135 72.3412 56.505V58.335C72.3412 58.705 72.4362 59.06 72.6262 59.4C72.8162 59.74 73.0712 60.015 73.3912 60.225C73.7212 60.435 74.0812 60.54 74.4712 60.54Z" fill="white"/>
<path d="M67.4696 61.065C66.9996 61.065 66.5596 60.94 66.1496 60.69C65.7396 60.43 65.4096 60.09 65.1596 59.67C64.9196 59.25 64.7996 58.805 64.7996 58.335V56.505C64.7996 56.005 64.9196 55.555 65.1596 55.155C65.4096 54.745 65.7396 54.42 66.1496 54.18C66.5596 53.93 67.0096 53.805 67.4996 53.805C67.9996 53.805 68.4196 53.925 68.7596 54.165C69.0996 54.395 69.3496 54.655 69.5096 54.945V49.71C69.5096 49.63 69.5346 49.57 69.5846 49.53C69.6446 49.48 69.7096 49.455 69.7796 49.455C69.8596 49.455 69.9196 49.48 69.9596 49.53C70.0096 49.57 70.0346 49.63 70.0346 49.71V60.705C70.0346 60.775 70.0096 60.84 69.9596 60.9C69.9196 60.95 69.8596 60.975 69.7796 60.975C69.7096 60.975 69.6446 60.95 69.5846 60.9C69.5346 60.84 69.5096 60.775 69.5096 60.705V59.925C69.3496 60.235 69.0846 60.505 68.7146 60.735C68.3446 60.955 67.9296 61.065 67.4696 61.065ZM67.4396 60.54C67.8396 60.54 68.1946 60.44 68.5046 60.24C68.8146 60.03 69.0596 59.795 69.2396 59.535C69.4196 59.275 69.5096 59.06 69.5096 58.89V56.505C69.5096 56.045 69.4096 55.655 69.2096 55.335C69.0096 55.015 68.7496 54.77 68.4296 54.6C68.1196 54.42 67.7946 54.33 67.4546 54.33C67.0646 54.33 66.7096 54.435 66.3896 54.645C66.0696 54.855 65.8096 55.125 65.6096 55.455C65.4196 55.785 65.3246 56.135 65.3246 56.505V58.335C65.3246 58.705 65.4196 59.06 65.6096 59.4C65.8096 59.74 66.0696 60.015 66.3896 60.225C66.7096 60.435 67.0596 60.54 67.4396 60.54Z" fill="white"/>
<path d="M57.3139 61.065C56.7339 61.065 56.2389 60.905 55.8289 60.585C55.4289 60.255 55.2289 59.755 55.2289 59.085C55.2289 58.555 55.3739 58.15 55.6639 57.87C55.9639 57.58 56.3739 57.38 56.8939 57.27C57.4239 57.16 58.0339 57.105 58.7239 57.105H59.5639V56.685C59.5639 56.305 59.4989 55.935 59.3689 55.575C59.2389 55.215 59.0289 54.92 58.7389 54.69C58.4489 54.45 58.0639 54.33 57.5839 54.33C57.2739 54.33 57.0139 54.365 56.8039 54.435C56.5939 54.495 56.4239 54.56 56.2939 54.63C56.1739 54.7 56.0839 54.735 56.0239 54.735C55.9439 54.735 55.8789 54.7 55.8289 54.63C55.7789 54.55 55.7539 54.485 55.7539 54.435C55.7539 54.335 55.8439 54.24 56.0239 54.15C56.2139 54.05 56.4489 53.97 56.7289 53.91C57.0189 53.84 57.3139 53.805 57.6139 53.805C58.2339 53.805 58.7239 53.945 59.0839 54.225C59.4439 54.495 59.6989 54.85 59.8489 55.29C60.0089 55.72 60.0889 56.185 60.0889 56.685V60.705C60.0889 60.775 60.0639 60.84 60.0139 60.9C59.9739 60.95 59.9139 60.975 59.8339 60.975C59.7639 60.975 59.6989 60.95 59.6389 60.9C59.5889 60.84 59.5639 60.775 59.5639 60.705V59.925C59.3139 60.215 58.9989 60.48 58.6189 60.72C58.2489 60.95 57.8139 61.065 57.3139 61.065ZM57.2989 60.54C57.6789 60.54 58.0389 60.45 58.3789 60.27C58.7289 60.08 59.0139 59.855 59.2339 59.595C59.4539 59.335 59.5639 59.1 59.5639 58.89V57.63H58.7389C58.2289 57.63 57.7439 57.66 57.2839 57.72C56.8339 57.78 56.4639 57.915 56.1739 58.125C55.8939 58.325 55.7539 58.645 55.7539 59.085C55.7539 59.585 55.9039 59.955 56.2039 60.195C56.5039 60.425 56.8689 60.54 57.2989 60.54Z" fill="white"/>
<path d="M51.7699 61.065C51.6999 61.065 51.6449 61.05 51.6049 61.02C51.5649 60.99 51.5349 60.945 51.5149 60.885L49.1749 54.375C49.1649 54.355 49.1499 54.325 49.1299 54.285C49.1199 54.235 49.1149 54.195 49.1149 54.165C49.1149 54.115 49.1249 54.07 49.1449 54.03C49.1749 53.99 49.2099 53.96 49.2499 53.94C49.2899 53.91 49.3349 53.895 49.3849 53.895C49.4349 53.895 49.4849 53.91 49.5349 53.94C49.5849 53.97 49.6199 54.01 49.6399 54.06L51.7699 59.955L53.8849 54.15C53.9049 54.09 53.9249 54.035 53.9449 53.985C53.9749 53.925 54.0399 53.895 54.1399 53.895C54.1899 53.895 54.2349 53.905 54.2749 53.925C54.3149 53.945 54.3499 53.975 54.3799 54.015C54.4099 54.055 54.4249 54.1 54.4249 54.15C54.4249 54.19 54.4149 54.235 54.3949 54.285C54.3849 54.325 54.3749 54.355 54.3649 54.375L52.0249 60.885C52.0049 60.935 51.9699 60.975 51.9199 61.005C51.8799 61.045 51.8299 61.065 51.7699 61.065Z" fill="white"/>
<path d="M47.3981 60.975C47.3281 60.975 47.2681 60.95 47.2181 60.9C47.1681 60.84 47.1431 60.775 47.1431 60.705V49.71C47.1431 49.63 47.1681 49.57 47.2181 49.53C47.2681 49.48 47.3281 49.455 47.3981 49.455C47.4781 49.455 47.5431 49.48 47.5931 49.53C47.6431 49.57 47.6681 49.63 47.6681 49.71V60.705C47.6681 60.775 47.6431 60.84 47.5931 60.9C47.5431 60.95 47.4781 60.975 47.3981 60.975Z" fill="white"/>
<path d="M42.2553 61.065C41.6753 61.065 41.1803 60.905 40.7703 60.585C40.3703 60.255 40.1703 59.755 40.1703 59.085C40.1703 58.555 40.3153 58.15 40.6053 57.87C40.9053 57.58 41.3153 57.38 41.8353 57.27C42.3653 57.16 42.9753 57.105 43.6653 57.105H44.5053V56.685C44.5053 56.305 44.4403 55.935 44.3103 55.575C44.1803 55.215 43.9703 54.92 43.6803 54.69C43.3903 54.45 43.0053 54.33 42.5253 54.33C42.2153 54.33 41.9553 54.365 41.7453 54.435C41.5353 54.495 41.3653 54.56 41.2353 54.63C41.1153 54.7 41.0253 54.735 40.9653 54.735C40.8853 54.735 40.8203 54.7 40.7703 54.63C40.7203 54.55 40.6953 54.485 40.6953 54.435C40.6953 54.335 40.7853 54.24 40.9653 54.15C41.1553 54.05 41.3903 53.97 41.6703 53.91C41.9603 53.84 42.2553 53.805 42.5553 53.805C43.1753 53.805 43.6653 53.945 44.0253 54.225C44.3853 54.495 44.6403 54.85 44.7903 55.29C44.9503 55.72 45.0303 56.185 45.0303 56.685V60.705C45.0303 60.775 45.0053 60.84 44.9553 60.9C44.9153 60.95 44.8553 60.975 44.7753 60.975C44.7053 60.975 44.6403 60.95 44.5803 60.9C44.5303 60.84 44.5053 60.775 44.5053 60.705V59.925C44.2553 60.215 43.9403 60.48 43.5603 60.72C43.1903 60.95 42.7553 61.065 42.2553 61.065ZM42.2403 60.54C42.6203 60.54 42.9803 60.45 43.3203 60.27C43.6703 60.08 43.9553 59.855 44.1753 59.595C44.3953 59.335 44.5053 59.1 44.5053 58.89V57.63H43.6803C43.1703 57.63 42.6853 57.66 42.2253 57.72C41.7753 57.78 41.4053 57.915 41.1153 58.125C40.8353 58.325 40.6953 58.645 40.6953 59.085C40.6953 59.585 40.8453 59.955 41.1453 60.195C41.4453 60.425 41.8103 60.54 42.2403 60.54Z" fill="white"/>
<path d="M33.6986 60.975C33.6286 60.975 33.5686 60.95 33.5186 60.9C33.4686 60.84 33.4436 60.775 33.4436 60.705V54.15C33.4436 54.07 33.4686 54.01 33.5186 53.97C33.5686 53.92 33.6286 53.895 33.6986 53.895C33.7786 53.895 33.8436 53.92 33.8936 53.97C33.9436 54.01 33.9686 54.07 33.9686 54.15V54.945C34.1386 54.655 34.3886 54.395 34.7186 54.165C35.0586 53.925 35.4786 53.805 35.9786 53.805C36.4686 53.805 36.9186 53.93 37.3286 54.18C37.7386 54.42 38.0636 54.745 38.3036 55.155C38.5536 55.555 38.6786 56.005 38.6786 56.505V60.705C38.6786 60.795 38.6486 60.865 38.5886 60.915C38.5386 60.955 38.4786 60.975 38.4086 60.975C38.3486 60.975 38.2886 60.955 38.2286 60.915C38.1786 60.865 38.1536 60.795 38.1536 60.705V56.505C38.1536 56.135 38.0536 55.785 37.8536 55.455C37.6636 55.125 37.4086 54.855 37.0886 54.645C36.7686 54.435 36.4136 54.33 36.0236 54.33C35.6836 54.33 35.3536 54.42 35.0336 54.6C34.7236 54.77 34.4686 55.015 34.2686 55.335C34.0686 55.655 33.9686 56.045 33.9686 56.505V60.705C33.9686 60.775 33.9436 60.84 33.8936 60.9C33.8436 60.95 33.7786 60.975 33.6986 60.975Z" fill="white"/>
<path d="M29.5389 61.065C28.9489 61.065 28.4239 60.95 27.9639 60.72C27.5139 60.49 27.1589 60.175 26.8989 59.775C26.6389 59.365 26.5089 58.885 26.5089 58.335V56.46C26.5089 55.98 26.6289 55.54 26.8689 55.14C27.1189 54.73 27.4439 54.405 27.8439 54.165C28.2539 53.925 28.6989 53.805 29.1789 53.805C29.6489 53.805 30.0839 53.925 30.4839 54.165C30.8939 54.395 31.2189 54.715 31.4589 55.125C31.7089 55.525 31.8339 55.985 31.8339 56.505C31.8339 56.865 31.7739 57.125 31.6539 57.285C31.5339 57.445 31.3789 57.545 31.1889 57.585C31.0089 57.615 30.8089 57.63 30.5889 57.63H27.0339V58.335C27.0339 59.015 27.2739 59.555 27.7539 59.955C28.2339 60.345 28.8389 60.54 29.5689 60.54C29.9889 60.54 30.3089 60.49 30.5289 60.39C30.7489 60.28 30.9139 60.175 31.0239 60.075C31.1439 59.975 31.2489 59.925 31.3389 59.925C31.3889 59.925 31.4339 59.94 31.4739 59.97C31.5139 60 31.5439 60.035 31.5639 60.075C31.5939 60.115 31.6089 60.155 31.6089 60.195C31.6089 60.285 31.5239 60.4 31.3539 60.54C31.1939 60.68 30.9589 60.805 30.6489 60.915C30.3389 61.015 29.9689 61.065 29.5389 61.065ZM27.0339 57.105H30.4089C30.7789 57.105 31.0189 57.07 31.1289 57C31.2489 56.93 31.3089 56.78 31.3089 56.55C31.3089 56.19 31.2189 55.84 31.0389 55.5C30.8689 55.16 30.6239 54.88 30.3039 54.66C29.9839 54.44 29.6089 54.33 29.1789 54.33C28.7789 54.33 28.4139 54.43 28.0839 54.63C27.7639 54.83 27.5089 55.09 27.3189 55.41C27.1289 55.73 27.0339 56.08 27.0339 56.46V57.105Z" fill="white"/>
<path d="M19.964 60.975C19.894 60.975 19.829 60.955 19.769 60.915C19.719 60.865 19.694 60.795 19.694 60.705V50.265C19.694 50.195 19.719 50.14 19.769 50.1C19.819 50.05 19.884 50.02 19.964 50.01H22.619C23.169 50.01 23.664 50.115 24.104 50.325C24.554 50.525 24.909 50.85 25.169 51.3C25.429 51.75 25.559 52.35 25.559 53.1V53.28C25.559 54.03 25.429 54.635 25.169 55.095C24.909 55.545 24.554 55.875 24.104 56.085C23.664 56.285 23.169 56.385 22.619 56.385H20.234V60.705C20.234 60.795 20.204 60.865 20.144 60.915C20.094 60.955 20.034 60.975 19.964 60.975ZM20.234 55.845H22.619C23.369 55.845 23.954 55.635 24.374 55.215C24.804 54.795 25.019 54.15 25.019 53.28V53.1C25.019 52.23 24.804 51.59 24.374 51.18C23.954 50.76 23.369 50.55 22.619 50.55H20.234V55.845Z" fill="white"/>
<path d="M77.6263 26.75C78.0597 26.3166 78.493 25.875 78.9263 25.425C79.3597 24.975 79.7847 24.5417 80.2013 24.125C80.6013 23.6917 80.9263 23.4083 81.1763 23.275C81.443 23.125 81.7013 23.05 81.9513 23.05C82.268 23.05 82.5263 23.15 82.7263 23.35C82.9263 23.55 83.0263 23.7916 83.0263 24.075C83.0263 24.3416 82.9097 24.6 82.6763 24.85C82.4597 25.0833 82.0847 25.325 81.5513 25.575C80.9347 25.8416 80.3347 26.1083 79.7513 26.375C79.1847 26.6416 78.593 26.9083 77.9763 27.175L77.6263 26.75Z" fill="#1D4E00"/>
<path d="M77.5886 25.9261C77.3234 25.748 77.0542 25.5708 76.7812 25.3948C76.5081 25.2187 76.2441 25.045 75.989 24.8737C75.7286 24.7134 75.5492 24.5746 75.4508 24.4572C75.3422 24.3329 75.2699 24.2037 75.234 24.0695C75.1884 23.8996 75.1981 23.7484 75.263 23.616C75.3279 23.4836 75.4267 23.3996 75.5594 23.364C75.6843 23.3306 75.8221 23.3607 75.9727 23.4546C76.1131 23.5416 76.2802 23.7125 76.474 23.9673C76.6875 24.2648 76.8987 24.5533 77.1075 24.8328C77.3138 25.1035 77.5238 25.3875 77.7374 25.685L77.5886 25.9261Z" fill="#1D4E00"/>
<g filter="url(#filter0_i_235_160)">
<path d="M78.0793 29.5464C78.0793 30.9666 76.928 32.1179 75.5078 32.1179C74.0877 32.1179 72.9364 30.9666 72.9364 29.5464C72.9364 28.1263 74.0877 26.975 75.5078 26.975C76.928 26.975 78.0793 28.1263 78.0793 29.5464Z" fill="#E0ABE1"/>
</g>
<g filter="url(#filter1_i_235_160)">
<path d="M78.0793 38.1179C78.0793 39.538 76.928 40.6893 75.5078 40.6893C74.0877 40.6893 72.9364 39.538 72.9364 38.1179C72.9364 36.6977 74.0877 35.5464 75.5078 35.5464C76.928 35.5464 78.0793 36.6977 78.0793 38.1179Z" fill="#E0ABE1"/>
</g>
<g filter="url(#filter2_i_235_160)">
<path d="M75.5078 33.8321C75.5078 35.2523 74.3566 36.4036 72.9364 36.4036C71.5163 36.4036 70.365 35.2523 70.365 33.8321C70.365 32.412 71.5163 31.2607 72.9364 31.2607C74.3566 31.2607 75.5078 32.412 75.5078 33.8321Z" fill="#E0ABE1"/>
</g>
<g filter="url(#filter3_i_235_160)">
<path d="M80.6507 33.8321C80.6507 35.2523 79.4994 36.4036 78.0792 36.4036C76.6591 36.4036 75.5078 35.2523 75.5078 33.8321C75.5078 32.412 76.6591 31.2607 78.0792 31.2607C79.4994 31.2607 80.6507 32.412 80.6507 33.8321Z" fill="#E0ABE1"/>
</g>
<g filter="url(#filter4_i_235_160)">
<path d="M80.6507 42.4036C80.6507 43.8237 79.4994 44.975 78.0792 44.975C76.6591 44.975 75.5078 43.8237 75.5078 42.4036C75.5078 40.9834 76.6591 39.8321 78.0792 39.8321C79.4994 39.8321 80.6507 40.9834 80.6507 42.4036Z" fill="#E0ABE1"/>
</g>
<g filter="url(#filter5_i_235_160)">
<path d="M83.2221 29.5464C83.2221 30.9666 82.0708 32.1179 80.6507 32.1179C79.2305 32.1179 78.0792 30.9666 78.0792 29.5464C78.0792 28.1263 79.2305 26.975 80.6507 26.975C82.0708 26.975 83.2221 28.1263 83.2221 29.5464Z" fill="#E0ABE1"/>
</g>
<g filter="url(#filter6_i_235_160)">
<path d="M83.2221 38.1179C83.2221 39.538 82.0708 40.6893 80.6507 40.6893C79.2305 40.6893 78.0792 39.538 78.0792 38.1179C78.0792 36.6977 79.2305 35.5464 80.6507 35.5464C82.0708 35.5464 83.2221 36.6977 83.2221 38.1179Z" fill="#E0ABE1"/>
</g>
<g filter="url(#filter7_i_235_160)">
<path d="M85.7936 33.8321C85.7936 35.2523 84.6423 36.4036 83.2222 36.4036C81.802 36.4036 80.6508 35.2523 80.6508 33.8321C80.6508 32.412 81.802 31.2607 83.2222 31.2607C84.6423 31.2607 85.7936 32.412 85.7936 33.8321Z" fill="#E0ABE1"/>
</g>
<defs>
<filter id="filter0_i_235_160" x="72.9364" y="26.975" width="8.14282" height="8.14286" filterUnits="userSpaceOnUse" color-interpolation-filters="sRGB">
<feFlood flood-opacity="0" result="BackgroundImageFix"/>
<feBlend mode="normal" in="SourceGraphic" in2="BackgroundImageFix" result="shape"/>
<feColorMatrix in="SourceAlpha" type="matrix" values="0 0 0 0 0 0 0 0 0 0 0 0 0 0 0 0 0 0 127 0" result="hardAlpha"/>
<feOffset dx="3" dy="3"/>
<feGaussianBlur stdDeviation="2.5"/>
<feComposite in2="hardAlpha" operator="arithmetic" k2="-1" k3="1"/>
<feColorMatrix type="matrix" values="0 0 0 0 0.580392 0 0 0 0 0.262745 0 0 0 0 0.588235 0 0 0 0.7 0"/>
<feBlend mode="normal" in2="shape" result="effect1_innerShadow_235_160"/>
</filter>
<filter id="filter1_i_235_160" x="72.9364" y="35.5464" width="8.14282" height="8.14286" filterUnits="userSpaceOnUse" color-interpolation-filters="sRGB">
<feFlood flood-opacity="0" result="BackgroundImageFix"/>
<feBlend mode="normal" in="SourceGraphic" in2="BackgroundImageFix" result="shape"/>
<feColorMatrix in="SourceAlpha" type="matrix" values="0 0 0 0 0 0 0 0 0 0 0 0 0 0 0 0 0 0 127 0" result="hardAlpha"/>
<feOffset dx="3" dy="3"/>
<feGaussianBlur stdDeviation="2.5"/>
<feComposite in2="hardAlpha" operator="arithmetic" k2="-1" k3="1"/>
<feColorMatrix type="matrix" values="0 0 0 0 0.580392 0 0 0 0 0.262745 0 0 0 0 0.588235 0 0 0 0.7 0"/>
<feBlend mode="normal" in2="shape" result="effect1_innerShadow_235_160"/>
</filter>
<filter id="filter2_i_235_160" x="70.365" y="31.2607" width="8.14282" height="8.14286" filterUnits="userSpaceOnUse" color-interpolation-filters="sRGB">
<feFlood flood-opacity="0" result="BackgroundImageFix"/>
<feBlend mode="normal" in="SourceGraphic" in2="BackgroundImageFix" result="shape"/>
<feColorMatrix in="SourceAlpha" type="matrix" values="0 0 0 0 0 0 0 0 0 0 0 0 0 0 0 0 0 0 127 0" result="hardAlpha"/>
<feOffset dx="3" dy="3"/>
<feGaussianBlur stdDeviation="2.5"/>
<feComposite in2="hardAlpha" operator="arithmetic" k2="-1" k3="1"/>
<feColorMatrix type="matrix" values="0 0 0 0 0.580392 0 0 0 0 0.262745 0 0 0 0 0.588235 0 0 0 0.7 0"/>
<feBlend mode="normal" in2="shape" result="effect1_innerShadow_235_160"/>
</filter>
<filter id="filter3_i_235_160" x="75.5078" y="31.2607" width="8.14282" height="8.14286" filterUnits="userSpaceOnUse" color-interpolation-filters="sRGB">
<feFlood flood-opacity="0" result="BackgroundImageFix"/>
<feBlend mode="normal" in="SourceGraphic" in2="BackgroundImageFix" result="shape"/>
<feColorMatrix in="SourceAlpha" type="matrix" values="0 0 0 0 0 0 0 0 0 0 0 0 0 0 0 0 0 0 127 0" result="hardAlpha"/>
<feOffset dx="3" dy="3"/>
<feGaussianBlur stdDeviation="2.5"/>
<feComposite in2="hardAlpha" operator="arithmetic" k2="-1" k3="1"/>
<feColorMatrix type="matrix" values="0 0 0 0 0.580392 0 0 0 0 0.262745 0 0 0 0 0.588235 0 0 0 0.7 0"/>
<feBlend mode="normal" in2="shape" result="effect1_innerShadow_235_160"/>
</filter>
<filter id="filter4_i_235_160" x="75.5078" y="39.8321" width="8.14282" height="8.14286" filterUnits="userSpaceOnUse" color-interpolation-filters="sRGB">
<feFlood flood-opacity="0" result="BackgroundImageFix"/>
<feBlend mode="normal" in="SourceGraphic" in2="BackgroundImageFix" result="shape"/>
<feColorMatrix in="SourceAlpha" type="matrix" values="0 0 0 0 0 0 0 0 0 0 0 0 0 0 0 0 0 0 127 0" result="hardAlpha"/>
<feOffset dx="3" dy="3"/>
<feGaussianBlur stdDeviation="2.5"/>
<feComposite in2="hardAlpha" operator="arithmetic" k2="-1" k3="1"/>
<feColorMatrix type="matrix" values="0 0 0 0 0.580392 0 0 0 0 0.262745 0 0 0 0 0.588235 0 0 0 0.7 0"/>
<feBlend mode="normal" in2="shape" result="effect1_innerShadow_235_160"/>
</filter>
<filter id="filter5_i_235_160" x="78.0792" y="26.975" width="8.14282" height="8.14286" filterUnits="userSpaceOnUse" color-interpolation-filters="sRGB">
<feFlood flood-opacity="0" result="BackgroundImageFix"/>
<feBlend mode="normal" in="SourceGraphic" in2="BackgroundImageFix" result="shape"/>
<feColorMatrix in="SourceAlpha" type="matrix" values="0 0 0 0 0 0 0 0 0 0 0 0 0 0 0 0 0 0 127 0" result="hardAlpha"/>
<feOffset dx="3" dy="3"/>
<feGaussianBlur stdDeviation="2.5"/>
<feComposite in2="hardAlpha" operator="arithmetic" k2="-1" k3="1"/>
<feColorMatrix type="matrix" values="0 0 0 0 0.580392 0 0 0 0 0.262745 0 0 0 0 0.588235 0 0 0 0.7 0"/>
<feBlend mode="normal" in2="shape" result="effect1_innerShadow_235_160"/>
</filter>
<filter id="filter6_i_235_160" x="78.0792" y="35.5464" width="8.14282" height="8.14286" filterUnits="userSpaceOnUse" color-interpolation-filters="sRGB">
<feFlood flood-opacity="0" result="BackgroundImageFix"/>
<feBlend mode="normal" in="SourceGraphic" in2="BackgroundImageFix" result="shape"/>
<feColorMatrix in="SourceAlpha" type="matrix" values="0 0 0 0 0 0 0 0 0 0 0 0 0 0 0 0 0 0 127 0" result="hardAlpha"/>
<feOffset dx="3" dy="3"/>
<feGaussianBlur stdDeviation="2.5"/>
<feComposite in2="hardAlpha" operator="arithmetic" k2="-1" k3="1"/>
<feColorMatrix type="matrix" values="0 0 0 0 0.580392 0 0 0 0 0.262745 0 0 0 0 0.588235 0 0 0 0.7 0"/>
<feBlend mode="normal" in2="shape" result="effect1_innerShadow_235_160"/>
</filter>
<filter id="filter7_i_235_160" x="80.6508" y="31.2607" width="8.14282" height="8.14286" filterUnits="userSpaceOnUse" color-interpolation-filters="sRGB">
<feFlood flood-opacity="0" result="BackgroundImageFix"/>
<feBlend mode="normal" in="SourceGraphic" in2="BackgroundImageFix" result="shape"/>
<feColorMatrix in="SourceAlpha" type="matrix" values="0 0 0 0 0 0 0 0 0 0 0 0 0 0 0 0 0 0 127 0" result="hardAlpha"/>
<feOffset dx="3" dy="3"/>
<feGaussianBlur stdDeviation="2.5"/>
<feComposite in2="hardAlpha" operator="arithmetic" k2="-1" k3="1"/>
<feColorMatrix type="matrix" values="0 0 0 0 0.580392 0 0 0 0 0.262745 0 0 0 0 0.588235 0 0 0 0.7 0"/>
<feBlend mode="normal" in2="shape" result="effect1_innerShadow_235_160"/>
</filter>
</defs>
</svg>
